<?xml version="1.0" encoding="utf-8"?>
<!-- Generator: Adobe Illustrator 25.2.1, SVG Export Plug-In . SVG Version: 6.00 Build 0)  -->
<svg version="1.1" xmlns="http://www.w3.org/2000/svg"  width="100" height="100" xmlns:xlink="http://www.w3.org/1999/xlink" x="0px" y="0px"
	 viewBox="0 0 100 100" style="enable-background:new 0 0 100 100;" xml:space="preserve">
<style type="text/css">
	.st0{enable-background:new    ;}
	.st1{clip-path:url(#SVGID_2_);enable-background:new    ;}
	.st2{fill:#2C7997;}
	.st3{clip-path:url(#SVGID_4_);enable-background:new    ;}
	.st4{clip-path:url(#SVGID_6_);enable-background:new    ;}
	.st5{fill:#2F7F9F;}
	.st6{fill:#2E7C9B;}
	.st7{clip-path:url(#SVGID_8_);enable-background:new    ;}
	.st8{fill:#2A7693;}
	.st9{clip-path:url(#SVGID_10_);enable-background:new    ;}
	.st10{fill:#3385A6;}
	.st11{fill:#3182A2;}
	.st12{clip-path:url(#SVGID_12_);enable-background:new    ;}
	.st13{clip-path:url(#SVGID_14_);enable-background:new    ;}
	.st14{clip-path:url(#SVGID_16_);enable-background:new    ;}
	.st15{clip-path:url(#SVGID_18_);enable-background:new    ;}
	.st16{fill:#3488AA;}
	.st17{fill:#368BAD;}
	.st18{clip-path:url(#SVGID_20_);enable-background:new    ;}
	.st19{fill:#25236A;}
	.st20{clip-path:url(#SVGID_22_);enable-background:new    ;}
	.st21{clip-path:url(#SVGID_24_);enable-background:new    ;}
	.st22{clip-path:url(#SVGID_26_);enable-background:new    ;}
	.st23{clip-path:url(#SVGID_28_);enable-background:new    ;}
	.st24{clip-path:url(#SVGID_30_);enable-background:new    ;}
	.st25{fill:#242168;}
	.st26{fill:#231F65;}
	.st27{fill:#211D63;}
	.st28{fill:#201B60;}
	.st29{fill:#1E1A5E;}
	.st30{clip-path:url(#SVGID_32_);enable-background:new    ;}
	.st31{fill:#26246D;}
	.st32{fill:#28266F;}
	.st33{clip-path:url(#SVGID_34_);enable-background:new    ;}
	.st34{clip-path:url(#SVGID_36_);enable-background:new    ;}
	.st35{clip-path:url(#SVGID_38_);enable-background:new    ;}
	.st36{clip-path:url(#SVGID_40_);enable-background:new    ;}
	.st37{clip-path:url(#SVGID_42_);enable-background:new    ;}
	.st38{clip-path:url(#SVGID_44_);enable-background:new    ;}
	.st39{clip-path:url(#SVGID_46_);enable-background:new    ;}
	.st40{fill:#3A93B7;}
	.st41{clip-path:url(#SVGID_48_);enable-background:new    ;}
	.st42{clip-path:url(#SVGID_50_);enable-background:new    ;}
	.st43{clip-path:url(#SVGID_52_);enable-background:new    ;}
	.st44{clip-path:url(#SVGID_54_);enable-background:new    ;}
	.st45{clip-path:url(#SVGID_56_);enable-background:new    ;}
	.st46{clip-path:url(#SVGID_58_);enable-background:new    ;}
	.st47{fill:#3891B4;}
	.st48{clip-path:url(#SVGID_60_);enable-background:new    ;}
	.st49{clip-path:url(#SVGID_62_);enable-background:new    ;}
	.st50{clip-path:url(#SVGID_64_);enable-background:new    ;}
	.st51{clip-path:url(#SVGID_66_);enable-background:new    ;}
	.st52{clip-path:url(#SVGID_68_);enable-background:new    ;}
	.st53{clip-path:url(#SVGID_70_);enable-background:new    ;}
	.st54{clip-path:url(#SVGID_72_);enable-background:new    ;}
	.st55{fill:#1E195D;}
	.st56{clip-path:url(#SVGID_74_);enable-background:new    ;}
	.st57{clip-path:url(#SVGID_76_);enable-background:new    ;}
	.st58{clip-path:url(#SVGID_78_);enable-background:new    ;}
	.st59{clip-path:url(#SVGID_80_);enable-background:new    ;}
	.st60{clip-path:url(#SVGID_82_);enable-background:new    ;}
	.st61{clip-path:url(#SVGID_84_);enable-background:new    ;}
	.st62{clip-path:url(#SVGID_86_);enable-background:new    ;}
	.st63{clip-path:url(#SVGID_88_);enable-background:new    ;}
	.st64{clip-path:url(#SVGID_90_);enable-background:new    ;}
	.st65{clip-path:url(#SVGID_92_);enable-background:new    ;}
	.st66{fill:#297492;}
	.st67{fill:#333589;}
	.st68{fill:#45ABD5;}
	.st69{clip-path:url(#SVGID_94_);enable-background:new    ;}
	.st70{clip-path:url(#SVGID_96_);enable-background:new    ;}
	.st71{clip-path:url(#SVGID_98_);enable-background:new    ;}
	.st72{clip-path:url(#SVGID_100_);enable-background:new    ;}
	.st73{clip-path:url(#SVGID_102_);enable-background:new    ;}
	.st74{clip-path:url(#SVGID_104_);enable-background:new    ;}
	.st75{clip-path:url(#SVGID_106_);enable-background:new    ;}
	.st76{clip-path:url(#SVGID_108_);enable-background:new    ;}
	.st77{clip-path:url(#SVGID_110_);enable-background:new    ;}
	.st78{clip-path:url(#SVGID_112_);enable-background:new    ;}
	.st79{clip-path:url(#SVGID_114_);enable-background:new    ;}
	.st80{clip-path:url(#SVGID_116_);enable-background:new    ;}
	.st81{clip-path:url(#SVGID_118_);enable-background:new    ;}
	.st82{clip-path:url(#SVGID_120_);enable-background:new    ;}
	.st83{clip-path:url(#SVGID_122_);enable-background:new    ;}
	.st84{clip-path:url(#SVGID_124_);enable-background:new    ;}
	.st85{clip-path:url(#SVGID_126_);enable-background:new    ;}
	.st86{clip-path:url(#SVGID_128_);enable-background:new    ;}
	.st87{clip-path:url(#SVGID_130_);enable-background:new    ;}
	.st88{clip-path:url(#SVGID_132_);enable-background:new    ;}
	.st89{clip-path:url(#SVGID_134_);enable-background:new    ;}
	.st90{clip-path:url(#SVGID_136_);enable-background:new    ;}
	.st91{clip-path:url(#SVGID_138_);enable-background:new    ;}
	.st92{clip-path:url(#SVGID_140_);enable-background:new    ;}
	.st93{clip-path:url(#SVGID_142_);enable-background:new    ;}
	.st94{clip-path:url(#SVGID_144_);enable-background:new    ;}
	.st95{clip-path:url(#SVGID_146_);enable-background:new    ;}
	.st96{clip-path:url(#SVGID_148_);enable-background:new    ;}
	.st97{clip-path:url(#SVGID_150_);enable-background:new    ;}
	.st98{clip-path:url(#SVGID_152_);enable-background:new    ;}
	.st99{clip-path:url(#SVGID_154_);enable-background:new    ;}
	.st100{clip-path:url(#SVGID_156_);enable-background:new    ;}
	.st101{clip-path:url(#SVGID_158_);enable-background:new    ;}
	.st102{clip-path:url(#SVGID_160_);enable-background:new    ;}
	.st103{clip-path:url(#SVGID_162_);enable-background:new    ;}
	.st104{clip-path:url(#SVGID_164_);enable-background:new    ;}
	.st105{clip-path:url(#SVGID_166_);enable-background:new    ;}
	.st106{clip-path:url(#SVGID_168_);enable-background:new    ;}
	.st107{clip-path:url(#SVGID_170_);enable-background:new    ;}
	.st108{clip-path:url(#SVGID_172_);enable-background:new    ;}
	.st109{clip-path:url(#SVGID_174_);enable-background:new    ;}
	.st110{clip-path:url(#SVGID_176_);enable-background:new    ;}
</style>
<g id="Layer_1">
	<g>
		<g>
			<g class="st0">
				<g class="st0">
					<defs>
						<path id="SVGID_1_" class="st0" d="M34.91,61.13c0.35-0.74,0.67-1.45,0.97-2.14c1.06,0.58,2.13,1.16,3.19,1.74
							c-0.3,0.69-0.62,1.4-0.97,2.14C37.04,62.29,35.98,61.71,34.91,61.13c1.06,0.58,2.13,1.16,3.19,1.74
							c-0.15,0.32-0.3,0.63-0.46,0.94c-1.06-0.58-2.13-1.16-3.19-1.74C34.61,61.76,34.76,61.45,34.91,61.13z"/>
					</defs>
					<clipPath id="SVGID_2_">
						<use xlink:href="#SVGID_1_"  style="overflow:visible;"/>
					</clipPath>
					<g class="st1">
						<path class="st2" d="M36.74,65.58l-3.19-1.74c0.46-0.85,0.91-1.76,1.37-2.72c0.83-1.76,1.52-3.37,2.06-4.85l3.19,1.74
							c-0.54,1.47-1.23,3.09-2.06,4.85C37.65,63.83,37.19,64.74,36.74,65.58"/>
					</g>
				</g>
				<g class="st0">
					<defs>
						<path id="SVGID_3_" class="st0" d="M36.29,58.03c1.06,0.58,2.13,1.16,3.19,1.74c-0.13,0.32-0.27,0.64-0.41,0.96
							c-1.06-0.58-2.13-1.16-3.19-1.74C36.03,58.67,36.16,58.35,36.29,58.03z"/>
					</defs>
					<clipPath id="SVGID_4_">
						<use xlink:href="#SVGID_3_"  style="overflow:visible;"/>
					</clipPath>
					<g class="st3">
						<path class="st2" d="M36.74,65.58l-3.19-1.74c0.46-0.85,0.91-1.76,1.37-2.72c0.83-1.76,1.52-3.37,2.06-4.85l3.19,1.74
							c-0.54,1.47-1.23,3.09-2.06,4.85C37.65,63.83,37.19,64.74,36.74,65.58"/>
					</g>
				</g>
				<g class="st0">
					<defs>
						<path id="SVGID_5_" class="st0" d="M33.67,63.61c2.49,1.36,2.96,1.62,3.19,1.74c-1.07,2.02-2.15,3.72-3.22,5.1
							c-1.06-0.58-2.13-1.16-3.19-1.74C31.53,67.33,32.6,65.63,33.67,63.61z"/>
					</defs>
					<clipPath id="SVGID_6_">
						<use xlink:href="#SVGID_5_"  style="overflow:visible;"/>
					</clipPath>
					<g class="st4">
						<path class="st5" d="M32.88,71.36l-3.19-1.74c0.51-0.58,1.03-1.24,1.54-1.97l3.19,1.74C33.91,70.12,33.39,70.78,32.88,71.36"
							/>
						<path class="st6" d="M34.42,69.39l-3.19-1.74c0.77-1.1,1.54-2.37,2.32-3.81l3.19,1.74C35.96,67.02,35.19,68.29,34.42,69.39"/>
						<path class="st2" d="M36.74,65.58l-3.19-1.74c0.46-0.85,0.91-1.76,1.37-2.72c0.83-1.76,1.52-3.37,2.06-4.85l3.19,1.74
							c-0.54,1.47-1.23,3.09-2.06,4.85C37.65,63.83,37.19,64.74,36.74,65.58"/>
					</g>
				</g>
				<g class="st0">
					<defs>
						<path id="SVGID_7_" class="st0" d="M36.29,58.03c0.59-1.43,1.06-2.75,1.41-3.94c1.06,0.58,2.13,1.16,3.19,1.74
							c-0.35,1.2-0.82,2.51-1.41,3.94c-0.83-0.45-1.66-0.9-2.49-1.36C36.76,58.28,36.53,58.16,36.29,58.03z"/>
					</defs>
					<clipPath id="SVGID_8_">
						<use xlink:href="#SVGID_7_"  style="overflow:visible;"/>
					</clipPath>
					<g class="st7">
						<path class="st2" d="M36.74,65.58l-3.19-1.74c0.46-0.85,0.91-1.76,1.37-2.72c0.83-1.76,1.52-3.37,2.06-4.85l3.19,1.74
							c-0.54,1.47-1.23,3.09-2.06,4.85C37.65,63.83,37.19,64.74,36.74,65.58"/>
						<path class="st8" d="M40.17,58.02l-3.19-1.74c0.99-2.69,1.49-4.91,1.5-6.62c0-1.05-0.29-1.73-0.88-2.05l3.19,1.74
							c0.59,0.32,0.88,1,0.88,2.05C41.66,53.1,41.16,55.32,40.17,58.02"/>
					</g>
				</g>
				<g class="st0">
					<defs>
						<path id="SVGID_9_" class="st0" d="M28.3,71.01c0.72-0.62,1.43-1.39,2.15-2.31c1.06,0.58,2.13,1.16,3.19,1.74
							c-0.72,0.92-1.43,1.69-2.15,2.31C30.43,72.17,29.36,71.59,28.3,71.01z"/>
					</defs>
					<clipPath id="SVGID_10_">
						<use xlink:href="#SVGID_9_"  style="overflow:visible;"/>
					</clipPath>
					<g class="st9">
						<path class="st10" d="M30.77,73.33l-3.19-1.74c0.3-0.22,0.6-0.46,0.9-0.73l3.19,1.74C31.37,72.86,31.07,73.11,30.77,73.33"/>
						<path class="st11" d="M31.67,72.59l-3.19-1.74c0.4-0.36,0.81-0.77,1.21-1.23l3.19,1.74C32.47,71.82,32.07,72.23,31.67,72.59"
							/>
						<path class="st5" d="M32.88,71.36l-3.19-1.74c0.51-0.58,1.03-1.24,1.54-1.97l3.19,1.74C33.91,70.12,33.39,70.78,32.88,71.36"
							/>
					</g>
				</g>
				<g class="st0">
					<defs>
						<path id="SVGID_11_" class="st0" d="M28.28,71.03c0.01-0.01,0.01-0.01,0.02-0.02c1.06,0.58,2.13,1.16,3.19,1.74
							c-0.01,0.01-0.01,0.01-0.02,0.02C30.41,72.19,29.35,71.61,28.28,71.03z"/>
					</defs>
					<clipPath id="SVGID_12_">
						<use xlink:href="#SVGID_11_"  style="overflow:visible;"/>
					</clipPath>
					<g class="st12">
						<path class="st10" d="M30.77,73.33l-3.19-1.74c0.3-0.22,0.6-0.46,0.9-0.73l3.19,1.74C31.37,72.86,31.07,73.11,30.77,73.33"/>
					</g>
				</g>
				<g class="st0">
					<defs>
						<path id="SVGID_13_" class="st0" d="M28.28,71.03c1.06,0.58,2.13,1.16,3.19,1.74c-0.22,0.19-0.45,0.37-0.67,0.53
							c-1.06-0.58-2.13-1.16-3.19-1.74C27.84,71.4,28.06,71.22,28.28,71.03z"/>
					</defs>
					<clipPath id="SVGID_14_">
						<use xlink:href="#SVGID_13_"  style="overflow:visible;"/>
					</clipPath>
					<g class="st13">
						<path class="st10" d="M30.77,73.33l-3.19-1.74c0.3-0.22,0.6-0.46,0.9-0.73l3.19,1.74C31.37,72.86,31.07,73.11,30.77,73.33"/>
					</g>
				</g>
				<g class="st0">
					<defs>
						<path id="SVGID_15_" class="st0" d="M27.58,71.59c0.01-0.01,0.03-0.02,0.04-0.03c1.06,0.58,2.13,1.16,3.19,1.74
							c-0.01,0.01-0.03,0.02-0.04,0.03C29.81,72.81,28.53,72.11,27.58,71.59z"/>
					</defs>
					<clipPath id="SVGID_16_">
						<use xlink:href="#SVGID_15_"  style="overflow:visible;"/>
					</clipPath>
					<g class="st14">
						<path class="st10" d="M30.77,73.33l-3.19-1.74c0.3-0.22,0.6-0.46,0.9-0.73l3.19,1.74C31.37,72.86,31.07,73.11,30.77,73.33"/>
					</g>
				</g>
				<g class="st0">
					<defs>
						<path id="SVGID_17_" class="st0" d="M27.48,71.56c0.05,0.03,0.08,0.03,0.09,0.03l3.19,1.74c-0.02,0-0.04-0.01-0.09-0.03
							C29.71,72.77,28.44,72.08,27.48,71.56z"/>
					</defs>
					<clipPath id="SVGID_18_">
						<use xlink:href="#SVGID_17_"  style="overflow:visible;"/>
					</clipPath>
					<g class="st15">
						<path class="st10" d="M30.67,73.29l-3.19-1.74c0.01,0,0.01,0.01,0.02,0.01l3.19,1.74C30.69,73.3,30.68,73.3,30.67,73.29"/>
						<path class="st16" d="M30.69,73.3l-3.19-1.74c0.02,0.01,0.04,0.02,0.05,0.02l3.19,1.74C30.73,73.32,30.71,73.31,30.69,73.3"/>
						<path class="st17" d="M30.74,73.32l-3.19-1.74c0.01,0,0.02,0,0.02,0l3.19,1.74C30.76,73.33,30.75,73.32,30.74,73.32"/>
					</g>
				</g>
				<g class="st0">
					<defs>
						<polygon id="SVGID_19_" class="st0" points="30.78,73.07 27.59,71.33 27.6,71.34 30.79,73.07 						"/>
					</defs>
					<clipPath id="SVGID_20_">
						<use xlink:href="#SVGID_19_"  style="overflow:visible;"/>
					</clipPath>
					<g class="st18">
						<polyline class="st19" points="30.78,73.07 27.59,71.33 27.6,71.34 30.79,73.07 30.78,73.07 						"/>
					</g>
				</g>
				<g class="st0">
					<defs>
						<path id="SVGID_21_" class="st0" d="M38.39,50.96c1.06,0.58,2.13,1.16,3.19,1.74c-0.11,0.93-0.34,1.98-0.68,3.13
							c-1.06-0.58-2.13-1.16-3.19-1.74C38.05,52.93,38.28,51.89,38.39,50.96z"/>
					</defs>
					<clipPath id="SVGID_22_">
						<use xlink:href="#SVGID_21_"  style="overflow:visible;"/>
					</clipPath>
					<g class="st20">
						<path class="st8" d="M40.17,58.02l-3.19-1.74c0.99-2.69,1.49-4.91,1.5-6.62c0-1.05-0.29-1.73-0.88-2.05l3.19,1.74
							c0.59,0.32,0.88,1,0.88,2.05C41.66,53.1,41.16,55.32,40.17,58.02"/>
					</g>
				</g>
				<g class="st0">
					<defs>
						<path id="SVGID_23_" class="st0" d="M38.48,49.66c0-0.2-0.01-0.38-0.03-0.56c1.06,0.58,2.13,1.16,3.19,1.74
							c0.02,0.17,0.03,0.36,0.03,0.56C40.6,50.82,39.54,50.24,38.48,49.66c1.06,0.58,2.13,1.16,3.19,1.74
							c0,0.36-0.02,0.75-0.07,1.16c-1.06-0.58-2.13-1.16-3.19-1.74C38.45,50.41,38.47,50.02,38.48,49.66z"/>
					</defs>
					<clipPath id="SVGID_24_">
						<use xlink:href="#SVGID_23_"  style="overflow:visible;"/>
					</clipPath>
					<g class="st21">
						<path class="st8" d="M40.17,58.02l-3.19-1.74c0.99-2.69,1.49-4.91,1.5-6.62c0-1.05-0.29-1.73-0.88-2.05l3.19,1.74
							c0.59,0.32,0.88,1,0.88,2.05C41.66,53.1,41.16,55.32,40.17,58.02"/>
					</g>
				</g>
				<g class="st0">
					<defs>
						<path id="SVGID_25_" class="st0" d="M38.43,48.98c1.06,0.58,2.13,1.16,3.19,1.74c0.01,0.04,0.01,0.08,0.02,0.12
							c-1.06-0.58-2.13-1.16-3.19-1.74C38.44,49.06,38.43,49.02,38.43,48.98z"/>
					</defs>
					<clipPath id="SVGID_26_">
						<use xlink:href="#SVGID_25_"  style="overflow:visible;"/>
					</clipPath>
					<g class="st22">
						<path class="st8" d="M40.17,58.02l-3.19-1.74c0.99-2.69,1.49-4.91,1.5-6.62c0-1.05-0.29-1.73-0.88-2.05l3.19,1.74
							c0.59,0.32,0.88,1,0.88,2.05C41.66,53.1,41.16,55.32,40.17,58.02"/>
					</g>
				</g>
				<g class="st0">
					<defs>
						<path id="SVGID_27_" class="st0" d="M38.43,48.98c-0.11-0.67-0.38-1.13-0.83-1.37l3.19,1.74c0.45,0.24,0.73,0.7,0.83,1.37
							C40.55,50.14,39.49,49.56,38.43,48.98z"/>
					</defs>
					<clipPath id="SVGID_28_">
						<use xlink:href="#SVGID_27_"  style="overflow:visible;"/>
					</clipPath>
					<g class="st23">
						<path class="st8" d="M40.17,58.02l-3.19-1.74c0.99-2.69,1.49-4.91,1.5-6.62c0-1.05-0.29-1.73-0.88-2.05l3.19,1.74
							c0.59,0.32,0.88,1,0.88,2.05C41.66,53.1,41.16,55.32,40.17,58.02"/>
					</g>
				</g>
				<g class="st0">
					<defs>
						<path id="SVGID_29_" class="st0" d="M37.47,47.83l3.19,1.74c0.52,0.29,0.78,0.9,0.78,1.86c0,2.6-1.2,6.43-3.54,11.35
							c-2.41,5.09-4.8,8.56-7.11,10.29l-3.19-1.74c2.31-1.73,4.7-5.2,7.11-10.29c2.34-4.93,3.53-8.75,3.54-11.35
							C38.25,48.73,38,48.12,37.47,47.83z"/>
					</defs>
					<clipPath id="SVGID_30_">
						<use xlink:href="#SVGID_29_"  style="overflow:visible;"/>
					</clipPath>
					<g class="st24">
						<path class="st19" d="M30.79,73.07l-3.19-1.74c0.24-0.18,0.48-0.38,0.73-0.6l3.19,1.74C31.27,72.69,31.03,72.89,30.79,73.07"
							/>
						<path class="st25" d="M31.52,72.47l-3.19-1.74c0.39-0.35,0.77-0.74,1.16-1.18l3.19,1.74C32.29,71.73,31.9,72.12,31.52,72.47"
							/>
						<path class="st26" d="M32.68,71.29l-3.19-1.74c0.5-0.57,1.01-1.22,1.52-1.94l3.19,1.74C33.69,70.07,33.18,70.72,32.68,71.29"
							/>
						<path class="st27" d="M34.2,69.34l-3.19-1.74c0.77-1.1,1.54-2.37,2.32-3.82l3.19,1.74C35.74,66.97,34.97,68.25,34.2,69.34"/>
						<path class="st28" d="M36.52,65.53l-3.19-1.74c0.46-0.86,0.92-1.77,1.38-2.75c0.83-1.75,1.52-3.37,2.06-4.84l3.19,1.74
							c-0.54,1.47-1.23,3.08-2.06,4.84C37.44,63.76,36.98,64.67,36.52,65.53"/>
						<path class="st29" d="M39.97,57.94l-3.19-1.74c0.98-2.66,1.47-4.84,1.48-6.52c0-0.96-0.25-1.57-0.78-1.86l3.19,1.74
							c0.52,0.29,0.78,0.9,0.78,1.86C41.44,53.1,40.94,55.29,39.97,57.94"/>
					</g>
				</g>
				<g class="st0">
					<defs>
						<path id="SVGID_31_" class="st0" d="M27.15,80.36l-3.19-1.74c3.45,1.88,6.1,2.7,7.9,2.45c4.28-0.6,8.24-4.37,11.76-11.22
							c3.54-6.87,5.34-14.16,5.36-21.67c0-2.39-1.87-4.91-5.58-7.47c-0.89-0.61-1.74-1.15-2.57-1.59l3.19,1.74
							c0.82,0.45,1.68,0.98,2.57,1.59c3.7,2.57,5.58,5.08,5.58,7.47c-0.01,7.51-1.82,14.8-5.36,21.67
							c-3.52,6.85-7.48,10.62-11.76,11.22C33.25,83.06,30.6,82.24,27.15,80.36z"/>
					</defs>
					<clipPath id="SVGID_32_">
						<use xlink:href="#SVGID_31_"  style="overflow:visible;"/>
					</clipPath>
					<g class="st30">
						<path class="st19" d="M27.15,80.36l-3.19-1.74c0.47,0.25,0.92,0.49,1.36,0.7l3.19,1.74C28.06,80.85,27.61,80.62,27.15,80.36"
							/>
						<path class="st31" d="M28.5,81.07l-3.19-1.74c1.43,0.71,2.71,1.2,3.82,1.49l3.19,1.74C31.21,82.27,29.93,81.77,28.5,81.07"/>
						<path class="st32" d="M32.32,82.56l-3.19-1.74c1.06,0.28,1.97,0.36,2.73,0.25c0.91-0.13,1.81-0.4,2.69-0.81L37.74,82
							c-0.88,0.41-1.78,0.69-2.69,0.81C34.29,82.92,33.38,82.83,32.32,82.56"/>
						<path class="st31" d="M37.74,82l-3.19-1.74c0.56-0.26,1.11-0.58,1.66-0.96l3.19,1.74C38.85,81.41,38.3,81.73,37.74,82"/>
						<path class="st19" d="M39.4,81.03l-3.19-1.74c0.49-0.34,0.98-0.73,1.46-1.16l3.19,1.74C40.38,80.31,39.89,80.69,39.4,81.03"/>
						<path class="st25" d="M40.86,79.87l-3.19-1.74c0.51-0.46,1.01-0.97,1.51-1.53l3.19,1.74C41.87,78.9,41.37,79.41,40.86,79.87"
							/>
						<path class="st26" d="M42.37,78.34l-3.19-1.74c0.59-0.67,1.18-1.42,1.75-2.23l3.19,1.74C43.54,76.92,42.96,77.67,42.37,78.34"
							/>
						<path class="st27" d="M44.12,76.11l-3.19-1.74c0.78-1.11,1.54-2.36,2.28-3.73l3.19,1.74C45.66,73.75,44.9,75,44.12,76.11"/>
						<path class="st28" d="M46.4,72.37l-3.19-1.74c0.14-0.26,0.27-0.52,0.41-0.78c0.95-1.85,1.78-3.72,2.47-5.62l3.19,1.74
							c-0.7,1.9-1.52,3.78-2.47,5.62C46.67,71.86,46.54,72.12,46.4,72.37"/>
						<path class="st29" d="M49.29,65.97l-3.19-1.74c1.9-5.18,2.87-10.55,2.88-16.05c0-2.39-1.87-4.91-5.58-7.47
							c-0.89-0.61-1.74-1.15-2.57-1.59l3.19,1.74c0.82,0.45,1.68,0.98,2.57,1.59c3.7,2.57,5.58,5.08,5.58,7.47
							C52.16,55.41,51.19,60.79,49.29,65.97"/>
					</g>
				</g>
				<g class="st0">
					<defs>
						<path id="SVGID_33_" class="st0" d="M52.85,25.07l-3.19-1.74c0.61-0.84,0.88-1.51,0.8-1.99l3.19,1.74
							C53.72,23.56,53.46,24.23,52.85,25.07z"/>
					</defs>
					<clipPath id="SVGID_34_">
						<use xlink:href="#SVGID_33_"  style="overflow:visible;"/>
					</clipPath>
					<g class="st33">
						<path class="st26" d="M52.85,25.07l-3.19-1.74c0.03-0.04,0.06-0.08,0.09-0.12l3.19,1.74C52.91,24.99,52.88,25.03,52.85,25.07"
							/>
						<path class="st27" d="M52.94,24.94l-3.19-1.74c0.15-0.22,0.28-0.42,0.39-0.62l3.19,1.74C53.22,24.52,53.09,24.73,52.94,24.94"
							/>
						<path class="st28" d="M53.32,24.33l-3.19-1.74c0.09-0.16,0.16-0.32,0.21-0.46l3.19,1.74C53.48,24.01,53.41,24.16,53.32,24.33"
							/>
						<path class="st29" d="M53.53,23.87l-3.19-1.74c0.11-0.3,0.15-0.56,0.11-0.78l3.19,1.74C53.68,23.3,53.64,23.57,53.53,23.87"/>
					</g>
				</g>
				<g class="st0">
					<defs>
						<path id="SVGID_35_" class="st0" d="M30.65,73.25l-3.19-1.74c-0.33-0.18-1.21-0.88-4.26-3.58l3.19,1.74
							C29.44,72.37,30.32,73.07,30.65,73.25z"/>
					</defs>
					<clipPath id="SVGID_36_">
						<use xlink:href="#SVGID_35_"  style="overflow:visible;"/>
					</clipPath>
					<g class="st34">
						<path class="st29" d="M30.65,73.25l-3.19-1.74c-0.33-0.18-1.21-0.88-4.26-3.58l3.19,1.74C29.44,72.37,30.32,73.07,30.65,73.25
							"/>
					</g>
				</g>
				<g class="st0">
					<defs>
						<path id="SVGID_37_" class="st0" d="M48.49,26.52l-3.19-1.74c0.88,0.23,1.57,0.31,2.08,0.24c0.11-0.02,0.21-0.04,0.3-0.07
							c0.7-0.24,1.36-0.79,1.97-1.63l3.19,1.74c-0.61,0.84-1.28,1.39-1.97,1.63c-0.09,0.03-0.19,0.05-0.3,0.07
							C50.06,26.83,49.36,26.75,48.49,26.52z"/>
					</defs>
					<clipPath id="SVGID_38_">
						<use xlink:href="#SVGID_37_"  style="overflow:visible;"/>
					</clipPath>
					<g class="st35">
						<path class="st31" d="M48.49,26.52l-3.19-1.74c0.02,0.01,0.04,0.01,0.06,0.02l3.19,1.74C48.53,26.53,48.51,26.53,48.49,26.52"
							/>
						<path class="st32" d="M48.55,26.54l-3.19-1.74c0.85,0.22,1.52,0.3,2.02,0.23c0.11-0.02,0.21-0.04,0.3-0.07
							c0.1-0.03,0.19-0.07,0.29-0.12l3.19,1.74c-0.1,0.05-0.19,0.08-0.29,0.12c-0.09,0.03-0.19,0.05-0.3,0.07
							C50.07,26.83,49.4,26.76,48.55,26.54"/>
						<path class="st31" d="M51.17,26.58l-3.19-1.74c0.16-0.07,0.31-0.16,0.46-0.27l3.19,1.74C51.48,26.41,51.32,26.5,51.17,26.58"
							/>
						<path class="st19" d="M51.63,26.31l-3.19-1.74c0.14-0.1,0.27-0.2,0.41-0.32l3.19,1.74C51.9,26.1,51.77,26.21,51.63,26.31"/>
						<path class="st25" d="M52.04,25.98l-3.19-1.74c0.14-0.13,0.28-0.27,0.42-0.42l3.19,1.74C52.32,25.71,52.18,25.86,52.04,25.98"
							/>
						<path class="st26" d="M52.46,25.56l-3.19-1.74c0.13-0.15,0.26-0.31,0.39-0.49l3.19,1.74C52.72,25.24,52.59,25.41,52.46,25.56"
							/>
					</g>
				</g>
				<g class="st0">
					<defs>
						<path id="SVGID_39_" class="st0" d="M37.6,47.61l3.19,1.74c-0.36-0.19-0.83-0.25-1.4-0.17c-1.38,0.19-3.28,1.53-5.65,3.97
							c-2.96,3.05-3.58,3.6-3.78,3.65l-3.19-1.74c0.2-0.06,0.82-0.6,3.78-3.65c2.37-2.44,4.27-3.78,5.65-3.97
							C36.77,47.36,37.24,47.42,37.6,47.61z"/>
					</defs>
					<clipPath id="SVGID_40_">
						<use xlink:href="#SVGID_39_"  style="overflow:visible;"/>
					</clipPath>
					<g class="st36">
						<path class="st32" d="M29.96,56.8l-3.19-1.74c0.01,0,0.03-0.01,0.04-0.02L30,56.79C29.99,56.79,29.97,56.8,29.96,56.8"/>
						<path class="st31" d="M30,56.79l-3.19-1.74c0.03-0.01,0.06-0.03,0.1-0.06l3.19,1.74C30.06,56.76,30.03,56.77,30,56.79"/>
						<path class="st19" d="M30.1,56.73l-3.19-1.74c0.08-0.06,0.2-0.15,0.37-0.3l3.19,1.74C30.3,56.58,30.19,56.67,30.1,56.73"/>
						<path class="st25" d="M30.47,56.42l-3.19-1.74c0.49-0.44,1.43-1.37,3.27-3.28c0.54-0.56,1.05-1.05,1.54-1.49l3.19,1.74
							c-0.49,0.44-1,0.94-1.54,1.49C31.9,55.05,30.96,55.98,30.47,56.42"/>
						<path class="st19" d="M35.29,51.65l-3.19-1.74c0.62-0.56,1.2-1.02,1.73-1.39l3.19,1.74C36.48,50.63,35.9,51.1,35.29,51.65"/>
						<path class="st31" d="M37.02,50.26l-3.19-1.74c0.43-0.3,0.84-0.54,1.22-0.72l3.19,1.74C37.86,49.72,37.45,49.96,37.02,50.26"
							/>
						<path class="st32" d="M38.24,49.54l-3.19-1.74c0.42-0.2,0.8-0.32,1.15-0.37c0.4-0.06,0.74-0.05,1.03,0.03l3.19,1.74
							c-0.29-0.08-0.64-0.09-1.03-0.03C39.04,49.22,38.65,49.35,38.24,49.54"/>
						<path class="st31" d="M40.42,49.2l-3.19-1.74c0.11,0.03,0.21,0.07,0.31,0.11l3.19,1.74C40.64,49.27,40.53,49.23,40.42,49.2"/>
						<path class="st19" d="M40.73,49.32l-3.19-1.74c0.02,0.01,0.04,0.02,0.05,0.03l3.19,1.74C40.77,49.34,40.75,49.33,40.73,49.32"
							/>
					</g>
				</g>
				<g class="st0">
					<defs>
						<path id="SVGID_41_" class="st0" d="M20.42,65.97l3.19,1.74c0.83,0.45,1.76,1.11,2.77,1.95l-3.19-1.74
							C22.18,67.08,21.26,66.43,20.42,65.97z"/>
					</defs>
					<clipPath id="SVGID_42_">
						<use xlink:href="#SVGID_41_"  style="overflow:visible;"/>
					</clipPath>
					<g class="st37">
						<path class="st29" d="M26.38,69.66l-3.19-1.74c-1.01-0.85-1.94-1.5-2.77-1.95l3.19,1.74C24.45,68.16,25.37,68.81,26.38,69.66"
							/>
					</g>
				</g>
				<g class="st0">
					<defs>
						<path id="SVGID_43_" class="st0" d="M45.55,26.05l-3.19-1.74c0.64,0.01,1.63,0.17,2.94,0.47l3.19,1.74
							C47.17,26.22,46.19,26.06,45.55,26.05z"/>
					</defs>
					<clipPath id="SVGID_44_">
						<use xlink:href="#SVGID_43_"  style="overflow:visible;"/>
					</clipPath>
					<g class="st38">
						<path class="st32" d="M45.55,26.05l-3.19-1.74c0.64,0.01,1.63,0.17,2.94,0.47l3.19,1.74C47.17,26.22,46.19,26.06,45.55,26.05"
							/>
					</g>
				</g>
				<g class="st0">
					<defs>
						<path id="SVGID_45_" class="st0" d="M20.42,65.97l3.19,1.74c-1.11-0.6-2.05-0.85-2.82-0.74l-3.19-1.74
							C18.37,65.12,19.32,65.37,20.42,65.97z"/>
					</defs>
					<clipPath id="SVGID_46_">
						<use xlink:href="#SVGID_45_"  style="overflow:visible;"/>
					</clipPath>
					<g class="st39">
						<path class="st17" d="M20.79,66.97l-3.19-1.74c0.38-0.05,0.8-0.02,1.27,0.1l3.19,1.74C21.6,66.95,21.17,66.91,20.79,66.97"/>
						<path class="st16" d="M22.06,67.07l-3.19-1.74c0.38,0.1,0.78,0.25,1.21,0.46l3.19,1.74C22.84,67.32,22.44,67.16,22.06,67.07"
							/>
						<path class="st10" d="M23.27,67.53l-3.19-1.74c0.11,0.06,0.23,0.11,0.34,0.18l3.19,1.74C23.5,67.65,23.38,67.59,23.27,67.53"
							/>
					</g>
				</g>
				<g>
					<polygon class="st40" points="20.63,67 17.44,65.26 17.6,65.23 20.79,66.97 					"/>
				</g>
				<g class="st0">
					<defs>
						<path id="SVGID_47_" class="st0" d="M15.22,67.03c0.61-1,1.36-1.6,2.22-1.76L20.63,67c-0.87,0.16-1.61,0.76-2.22,1.76
							c-0.62,1-0.88,2.02-0.8,2.99c0.17,1.98,2.59,4.42,7.19,7.25c-1.06-0.58-2.13-1.16-3.19-1.74c1.06,0.58,2.13,1.16,3.19,1.74
							c0.82,0.5,1.6,0.95,2.34,1.36l-3.19-1.74c-0.74-0.4-1.52-0.86-2.34-1.36c-4.6-2.83-7.02-5.27-7.19-7.25
							C14.33,69.04,14.6,68.03,15.22,67.03z"/>
					</defs>
					<clipPath id="SVGID_48_">
						<use xlink:href="#SVGID_47_"  style="overflow:visible;"/>
					</clipPath>
					<g class="st41">
						<path class="st8" d="M27.15,80.36l-3.19-1.74c-0.74-0.4-1.52-0.86-2.34-1.36c-4.6-2.83-7.02-5.27-7.19-7.25
							c-0.06-0.63,0.04-1.28,0.27-1.92l3.19,1.74c-0.24,0.65-0.33,1.3-0.27,1.92c0.17,1.98,2.59,4.42,7.19,7.25
							C25.62,79.51,26.4,79.96,27.15,80.36"/>
						<path class="st2" d="M17.89,69.83l-3.19-1.74c0.09-0.24,0.2-0.49,0.33-0.73l3.19,1.74C18.09,69.34,17.98,69.58,17.89,69.83"/>
						<path class="st6" d="M18.22,69.09l-3.19-1.74c0.06-0.11,0.12-0.22,0.19-0.33c0.07-0.11,0.14-0.22,0.21-0.32l3.19,1.74
							c-0.07,0.1-0.14,0.21-0.21,0.32C18.34,68.87,18.28,68.98,18.22,69.09"/>
						<path class="st5" d="M18.62,68.45l-3.19-1.74c0.11-0.15,0.22-0.29,0.33-0.42l3.19,1.74C18.83,68.15,18.72,68.29,18.62,68.45"
							/>
						<path class="st11" d="M18.95,68.02l-3.19-1.74c0.1-0.12,0.21-0.22,0.32-0.32l3.19,1.74C19.16,67.8,19.05,67.9,18.95,68.02"/>
						<path class="st10" d="M19.27,67.7l-3.19-1.74c0.11-0.1,0.22-0.18,0.33-0.26l3.19,1.74C19.48,67.52,19.37,67.6,19.27,67.7"/>
						<path class="st16" d="M19.6,67.44l-3.19-1.74c0.13-0.09,0.27-0.17,0.41-0.24l3.19,1.74C19.87,67.27,19.73,67.35,19.6,67.44"/>
						<path class="st17" d="M20.01,67.2l-3.19-1.74c0.2-0.09,0.41-0.16,0.63-0.2L20.63,67C20.42,67.04,20.21,67.11,20.01,67.2"/>
					</g>
				</g>
				<g class="st0">
					<defs>
						<path id="SVGID_49_" class="st0" d="M26.99,80.57l-3.19-1.74c-0.74-0.4-1.51-0.85-2.32-1.34c-4.72-2.91-7.11-5.33-7.29-7.41
							c-0.09-1.04,0.19-2.1,0.84-3.17c0.65-1.07,1.46-1.7,2.4-1.88c0.05-0.01,0.11-0.02,0.16-0.03c0.82-0.11,1.8,0.14,2.95,0.76
							l3.19,1.74c-1.15-0.62-2.13-0.88-2.95-0.76c-0.05,0.01-0.11,0.02-0.16,0.03c-0.94,0.18-1.75,0.82-2.4,1.88
							c-0.65,1.07-0.93,2.13-0.84,3.17c0.18,2.08,2.57,4.51,7.29,7.41C25.48,79.72,26.26,80.16,26.99,80.57z"/>
					</defs>
					<clipPath id="SVGID_50_">
						<use xlink:href="#SVGID_49_"  style="overflow:visible;"/>
					</clipPath>
					<g class="st42">
						<path class="st29" d="M26.99,80.57l-3.19-1.74c-0.74-0.4-1.51-0.85-2.32-1.34c-4.72-2.91-7.11-5.33-7.29-7.41
							c-0.06-0.67,0.04-1.36,0.29-2.04l3.19,1.74c-0.25,0.69-0.35,1.37-0.29,2.04c0.18,2.08,2.57,4.51,7.29,7.41
							C25.48,79.72,26.26,80.16,26.99,80.57"/>
						<path class="st28" d="M17.68,69.77l-3.19-1.74c0.1-0.26,0.22-0.53,0.36-0.79l3.19,1.74C17.89,69.24,17.77,69.5,17.68,69.77"/>
						<path class="st27" d="M18.03,68.97l-3.19-1.74c0.06-0.11,0.12-0.22,0.19-0.33c0.07-0.11,0.14-0.22,0.21-0.33l3.19,1.74
							c-0.07,0.1-0.14,0.21-0.21,0.33C18.16,68.75,18.09,68.86,18.03,68.97"/>
						<path class="st26" d="M18.44,68.31l-3.19-1.74c0.11-0.16,0.23-0.31,0.35-0.44l3.19,1.74C18.67,68.01,18.55,68.15,18.44,68.31"
							/>
						<path class="st25" d="M18.79,67.87l-3.19-1.74c0.11-0.12,0.22-0.24,0.34-0.34l3.19,1.74C19.01,67.63,18.9,67.75,18.79,67.87"
							/>
						<path class="st19" d="M19.13,67.53l-3.19-1.74c0.12-0.11,0.24-0.2,0.36-0.29l3.19,1.74C19.36,67.33,19.24,67.42,19.13,67.53"
							/>
						<path class="st31" d="M19.49,67.24l-3.19-1.74c0.15-0.1,0.3-0.19,0.45-0.26l3.19,1.74C19.78,67.06,19.63,67.14,19.49,67.24"/>
						<path class="st32" d="M19.94,66.98l-3.19-1.74c0.22-0.1,0.45-0.18,0.69-0.23c0.05-0.01,0.11-0.02,0.16-0.03
							c0.41-0.06,0.86-0.02,1.35,0.11l3.19,1.74c-0.49-0.13-0.94-0.16-1.35-0.11c-0.05,0.01-0.11,0.02-0.16,0.03
							C20.39,66.8,20.16,66.88,19.94,66.98"/>
						<path class="st31" d="M22.14,66.83l-3.19-1.74c0.39,0.1,0.81,0.26,1.25,0.48l3.19,1.74C22.94,67.09,22.53,66.93,22.14,66.83"
							/>
						<path class="st19" d="M23.39,67.31l-3.19-1.74c0.11,0.06,0.23,0.12,0.35,0.18l3.19,1.74C23.62,67.43,23.5,67.37,23.39,67.31"
							/>
					</g>
				</g>
				<g class="st0">
					<defs>
						<path id="SVGID_51_" class="st0" d="M53.64,23.08l-3.19-1.74c-0.22-1.12-1.12-2.65-2.68-4.55c-1.44-1.79-2.77-3.09-3.98-3.89
							l3.19,1.74c1.21,0.8,2.54,2.11,3.98,3.89C52.52,20.43,53.42,21.96,53.64,23.08z"/>
					</defs>
					<clipPath id="SVGID_52_">
						<use xlink:href="#SVGID_51_"  style="overflow:visible;"/>
					</clipPath>
					<g class="st43">
						<path class="st29" d="M53.64,23.08l-3.19-1.74c-0.22-1.12-1.12-2.65-2.68-4.55c-1.44-1.79-2.77-3.09-3.98-3.89l3.19,1.74
							c1.21,0.8,2.54,2.11,3.98,3.89C52.52,20.43,53.42,21.96,53.64,23.08"/>
					</g>
				</g>
				<g class="st0">
					<defs>
						<path id="SVGID_53_" class="st0" d="M43.76,12.89l3.19,1.74c0.01,0.01,0.02,0.01,0.03,0.02l-3.19-1.74
							C43.78,12.9,43.77,12.89,43.76,12.89z"/>
					</defs>
					<clipPath id="SVGID_54_">
						<use xlink:href="#SVGID_53_"  style="overflow:visible;"/>
					</clipPath>
					<g class="st44">
						<path class="st29" d="M46.98,14.64l-3.19-1.74c-0.01-0.01-0.02-0.01-0.03-0.02l3.19,1.74C46.96,14.63,46.97,14.63,46.98,14.64
							"/>
					</g>
				</g>
				<g class="st0">
					<defs>
						<path id="SVGID_55_" class="st0" d="M33.97,37.38c1.93-0.27,4.24,0.31,6.86,1.74l3.19,1.74c-2.63-1.43-4.93-2.01-6.86-1.74
							c-1.74,0.24-3.57,0.97-5.45,2.15l-3.19-1.74C30.4,38.35,32.24,37.62,33.97,37.38z"/>
					</defs>
					<clipPath id="SVGID_56_">
						<use xlink:href="#SVGID_55_"  style="overflow:visible;"/>
					</clipPath>
					<g class="st45">
						<path class="st16" d="M31.71,41.26l-3.19-1.74c0.64-0.4,1.27-0.75,1.89-1.04l3.19,1.74C32.98,40.52,32.35,40.86,31.71,41.26"
							/>
						<path class="st17" d="M33.6,40.22l-3.19-1.74c1.22-0.57,2.41-0.95,3.56-1.11c0.98-0.14,2.06-0.06,3.23,0.25l3.19,1.74
							c-1.17-0.3-2.25-0.39-3.23-0.25C36.01,39.28,34.82,39.65,33.6,40.22"/>
						<path class="st16" d="M40.4,39.36l-3.19-1.74c0.9,0.23,1.85,0.6,2.86,1.09l3.19,1.74C42.25,39.96,41.3,39.6,40.4,39.36"/>
						<path class="st10" d="M43.26,40.45l-3.19-1.74c0.25,0.12,0.51,0.26,0.77,0.4l3.19,1.74C43.77,40.71,43.51,40.58,43.26,40.45"
							/>
					</g>
				</g>
				<g class="st0">
					<defs>
						<path id="SVGID_57_" class="st0" d="M40.95,38.9l3.19,1.74c-2.66-1.45-5-2.04-6.98-1.76c-1.72,0.24-3.53,0.95-5.39,2.09
							l-3.19-1.74c1.85-1.14,3.66-1.85,5.39-2.09C35.95,36.86,38.29,37.45,40.95,38.9z"/>
					</defs>
					<clipPath id="SVGID_58_">
						<use xlink:href="#SVGID_57_"  style="overflow:visible;"/>
					</clipPath>
					<g class="st46">
						<path class="st31" d="M31.78,40.96l-3.19-1.74c0.59-0.37,1.18-0.69,1.77-0.96L33.55,40C32.96,40.27,32.37,40.59,31.78,40.96"
							/>
						<path class="st32" d="M33.55,40l-3.19-1.74c1.24-0.58,2.45-0.96,3.62-1.13c1.01-0.14,2.12-0.06,3.31,0.25l3.19,1.74
							c-1.19-0.31-2.3-0.39-3.31-0.25C35.99,39.04,34.78,39.41,33.55,40"/>
						<path class="st31" d="M40.47,39.12l-3.19-1.74c0.91,0.24,1.88,0.6,2.89,1.1l3.19,1.74C42.35,39.73,41.39,39.36,40.47,39.12"/>
						<path class="st19" d="M43.37,40.23l-3.19-1.74c0.26,0.13,0.51,0.26,0.78,0.4l3.19,1.74C43.88,40.49,43.62,40.35,43.37,40.23"
							/>
					</g>
				</g>
				<g>
					<polygon class="st47" points="31.55,41.35 28.36,39.62 28.52,39.53 31.71,41.26 					"/>
				</g>
				<g class="st0">
					<defs>
						<path id="SVGID_59_" class="st0" d="M43.76,12.89l3.19,1.74c-0.31-0.17-0.66-0.23-1.04-0.18l-3.19-1.74
							C43.1,12.65,43.45,12.72,43.76,12.89z"/>
					</defs>
					<clipPath id="SVGID_60_">
						<use xlink:href="#SVGID_59_"  style="overflow:visible;"/>
					</clipPath>
					<g class="st48">
						<path class="st17" d="M45.91,14.44l-3.19-1.74c0.23-0.03,0.46-0.02,0.67,0.03l3.19,1.74C46.37,14.42,46.15,14.41,45.91,14.44"
							/>
						<path class="st16" d="M46.58,14.47l-3.19-1.74c0.11,0.03,0.21,0.07,0.31,0.11l3.19,1.74C46.79,14.54,46.68,14.5,46.58,14.47"
							/>
						<path class="st10" d="M46.89,14.59l-3.19-1.74c0.02,0.01,0.04,0.02,0.06,0.03l3.19,1.74C46.93,14.61,46.91,14.6,46.89,14.59"
							/>
					</g>
				</g>
				<g class="st0">
					<defs>
						<path id="SVGID_61_" class="st0" d="M45.7,14.48l-3.19-1.74c0.07-0.02,0.14-0.03,0.21-0.04l3.19,1.74
							C45.84,14.45,45.77,14.46,45.7,14.48z"/>
					</defs>
					<clipPath id="SVGID_62_">
						<use xlink:href="#SVGID_61_"  style="overflow:visible;"/>
					</clipPath>
					<g class="st49">
						<path class="st17" d="M45.7,14.48l-3.19-1.74c0.07-0.02,0.14-0.03,0.21-0.04l3.19,1.74C45.84,14.45,45.77,14.46,45.7,14.48"/>
					</g>
				</g>
				<g class="st0">
					<defs>
						<path id="SVGID_63_" class="st0" d="M43.86,12.66l3.19,1.74c-0.35-0.19-0.73-0.25-1.15-0.19c-0.07,0.01-0.15,0.02-0.23,0.04
							l-3.19-1.74c0.08-0.02,0.15-0.03,0.23-0.04C43.12,12.41,43.51,12.47,43.86,12.66z"/>
					</defs>
					<clipPath id="SVGID_64_">
						<use xlink:href="#SVGID_63_"  style="overflow:visible;"/>
					</clipPath>
					<g class="st50">
						<path class="st32" d="M45.67,14.24l-3.19-1.74c0.08-0.02,0.15-0.03,0.23-0.04c0.27-0.04,0.52-0.03,0.75,0.04l3.19,1.74
							c-0.24-0.06-0.49-0.07-0.75-0.04C45.82,14.21,45.74,14.23,45.67,14.24"/>
						<path class="st31" d="M46.65,14.24l-3.19-1.74c0.11,0.03,0.23,0.07,0.33,0.12l3.19,1.74C46.87,14.31,46.76,14.27,46.65,14.24"
							/>
						<path class="st19" d="M46.98,14.36l-3.19-1.74c0.02,0.01,0.04,0.02,0.07,0.03l3.19,1.74C47.03,14.38,47,14.37,46.98,14.36"/>
					</g>
				</g>
				<g class="st0">
					<defs>
						<path id="SVGID_65_" class="st0" d="M44.29,14.97l-3.19-1.74c0.5-0.16,0.97-0.33,1.41-0.48l3.19,1.74
							C45.26,14.64,44.79,14.8,44.29,14.97z"/>
					</defs>
					<clipPath id="SVGID_66_">
						<use xlink:href="#SVGID_65_"  style="overflow:visible;"/>
					</clipPath>
					<g class="st51">
						<path class="st17" d="M44.29,14.97l-3.19-1.74c0.5-0.16,0.97-0.33,1.41-0.48l3.19,1.74C45.26,14.64,44.79,14.8,44.29,14.97"/>
					</g>
				</g>
				<g class="st0">
					<defs>
						<path id="SVGID_67_" class="st0" d="M44.27,14.73L41.08,13c0.47-0.16,0.95-0.32,1.39-0.49l3.19,1.74
							C45.22,14.41,44.75,14.57,44.27,14.73z"/>
					</defs>
					<clipPath id="SVGID_68_">
						<use xlink:href="#SVGID_67_"  style="overflow:visible;"/>
					</clipPath>
					<g class="st52">
						<path class="st32" d="M44.27,14.73L41.08,13c0.47-0.16,0.95-0.32,1.39-0.49l3.19,1.74C45.22,14.41,44.75,14.57,44.27,14.73"/>
					</g>
				</g>
				<g class="st0">
					<defs>
						<path id="SVGID_69_" class="st0" d="M22.15,54.39l-3.19-1.74c0.81,0.44,1.77,0.87,2.89,1.28c2.35,0.87,4.01,1.25,4.92,1.13
							l3.19,1.74c-0.91,0.13-2.57-0.25-4.92-1.13C23.92,55.26,22.96,54.83,22.15,54.39z"/>
					</defs>
					<clipPath id="SVGID_70_">
						<use xlink:href="#SVGID_69_"  style="overflow:visible;"/>
					</clipPath>
					<g class="st53">
						<path class="st19" d="M22.15,54.39l-3.19-1.74c0.19,0.1,0.39,0.21,0.6,0.31l3.19,1.74C22.54,54.6,22.34,54.5,22.15,54.39"/>
						<path class="st31" d="M22.75,54.7l-3.19-1.74c0.67,0.33,1.44,0.66,2.29,0.97c0.99,0.37,1.85,0.65,2.59,0.84l3.19,1.74
							c-0.74-0.19-1.6-0.47-2.59-0.84C24.19,55.36,23.42,55.03,22.75,54.7"/>
						<path class="st32" d="M27.63,56.51l-3.19-1.74c1.02,0.27,1.8,0.36,2.33,0.29l3.19,1.74C29.43,56.88,28.65,56.78,27.63,56.51"
							/>
					</g>
				</g>
				<g class="st0">
					<defs>
						<path id="SVGID_71_" class="st0" d="M18.96,52.66c-0.14-0.08-0.27-0.15-0.4-0.23c1.06,0.58,2.13,1.16,3.19,1.74
							c0.13,0.08,0.27,0.15,0.41,0.23C21.19,53.87,19.91,53.18,18.96,52.66z"/>
					</defs>
					<clipPath id="SVGID_72_">
						<use xlink:href="#SVGID_71_"  style="overflow:visible;"/>
					</clipPath>
					<g class="st54">
						<path class="st8" d="M22.15,54.39l-3.19-1.74c-0.97-0.53-1.71-1.07-2.22-1.63l3.19,1.74C20.44,53.32,21.18,53.86,22.15,54.39"
							/>
					</g>
				</g>
				<g>
					<polygon class="st55" points="31.55,41.35 28.36,39.62 28.38,31.4 31.57,33.13 					"/>
				</g>
				<g class="st0">
					<defs>
						<path id="SVGID_73_" class="st0" d="M31.57,33.13l-3.19-1.74c2.26-2.31,4.91-4.12,7.9-5.41c1.89-0.85,3.57-1.38,5-1.58
							c0.38-0.05,0.74-0.08,1.09-0.09l3.19,1.74c-0.34,0.01-0.71,0.04-1.09,0.09c-1.43,0.2-3.1,0.73-5,1.58
							C36.48,29.01,33.83,30.83,31.57,33.13z"/>
					</defs>
					<clipPath id="SVGID_74_">
						<use xlink:href="#SVGID_73_"  style="overflow:visible;"/>
					</clipPath>
					<g class="st56">
						<path class="st25" d="M31.57,33.13l-3.19-1.74c0.36-0.37,0.74-0.73,1.12-1.08l3.19,1.74C32.31,32.4,31.93,32.76,31.57,33.13"
							/>
						<path class="st19" d="M32.69,32.06l-3.19-1.74c0.78-0.7,1.61-1.36,2.47-1.95l3.19,1.74C34.3,30.7,33.48,31.35,32.69,32.06"/>
						<path class="st31" d="M35.16,30.1l-3.19-1.74c1.12-0.77,2.3-1.46,3.55-2.04l3.19,1.74C37.46,28.65,36.28,29.33,35.16,30.1"/>
						<path class="st32" d="M38.71,28.06l-3.19-1.74c0.25-0.12,0.5-0.23,0.76-0.34c1.89-0.85,3.57-1.38,5-1.58
							c0.38-0.05,0.74-0.08,1.09-0.09l3.19,1.74c-0.34,0.01-0.71,0.04-1.09,0.09c-1.43,0.2-3.1,0.73-5,1.58
							C39.21,27.83,38.96,27.94,38.71,28.06"/>
					</g>
				</g>
				<g class="st0">
					<defs>
						<path id="SVGID_75_" class="st0" d="M18.55,52.43c-0.77-0.46-1.38-0.92-1.81-1.4l3.19,1.74c0.43,0.48,1.04,0.94,1.81,1.4
							c-0.53-0.29-1.06-0.58-1.6-0.87C19.62,53.01,19.08,52.73,18.55,52.43z"/>
					</defs>
					<clipPath id="SVGID_76_">
						<use xlink:href="#SVGID_75_"  style="overflow:visible;"/>
					</clipPath>
					<g class="st57">
						<path class="st8" d="M22.15,54.39l-3.19-1.74c-0.97-0.53-1.71-1.07-2.22-1.63l3.19,1.74C20.44,53.32,21.18,53.86,22.15,54.39"
							/>
					</g>
				</g>
				<g class="st0">
					<defs>
						<path id="SVGID_77_" class="st0" d="M22.04,54.62l-3.19-1.74c-0.99-0.54-1.76-1.1-2.28-1.67l3.19,1.74
							C20.28,53.52,21.04,54.08,22.04,54.62z"/>
					</defs>
					<clipPath id="SVGID_78_">
						<use xlink:href="#SVGID_77_"  style="overflow:visible;"/>
					</clipPath>
					<g class="st58">
						<path class="st29" d="M22.04,54.62l-3.19-1.74c-0.99-0.54-1.76-1.1-2.28-1.67l3.19,1.74C20.28,53.52,21.04,54.08,22.04,54.62"
							/>
					</g>
				</g>
				<g class="st0">
					<defs>
						<path id="SVGID_79_" class="st0" d="M19.93,52.76l-3.19-1.74c-0.3-0.38-0.45-0.81-0.45-1.33c0-0.23,0.06-0.69,0.17-1.36
							c0.12-0.69,0.18-1.23,0.18-1.62l3.19,1.74c0,0.4-0.06,0.93-0.18,1.62c-0.11,0.66-0.17,1.12-0.17,1.36
							C19.47,51.96,19.63,52.38,19.93,52.76z"/>
					</defs>
					<clipPath id="SVGID_80_">
						<use xlink:href="#SVGID_79_"  style="overflow:visible;"/>
					</clipPath>
					<g class="st59">
						<path class="st8" d="M19.93,52.76l-3.19-1.74c-0.3-0.38-0.45-0.81-0.45-1.33c0-0.23,0.06-0.69,0.17-1.36
							c0.12-0.69,0.18-1.23,0.18-1.62l3.19,1.74c0,0.4-0.06,0.93-0.18,1.62c-0.11,0.66-0.17,1.12-0.17,1.36
							C19.47,51.96,19.63,52.38,19.93,52.76"/>
					</g>
				</g>
				<g class="st0">
					<defs>
						<path id="SVGID_81_" class="st0" d="M19.75,52.94l-3.19-1.74c-0.33-0.42-0.49-0.92-0.49-1.48c0-0.25,0.06-0.73,0.17-1.4
							c0.11-0.68,0.17-1.2,0.17-1.58l3.19,1.74c0,0.38-0.06,0.9-0.17,1.58c-0.11,0.67-0.17,1.15-0.17,1.4
							C19.26,52.03,19.43,52.52,19.75,52.94z"/>
					</defs>
					<clipPath id="SVGID_82_">
						<use xlink:href="#SVGID_81_"  style="overflow:visible;"/>
					</clipPath>
					<g class="st60">
						<path class="st29" d="M19.75,52.94l-3.19-1.74c-0.33-0.42-0.49-0.92-0.49-1.48c0-0.25,0.06-0.73,0.17-1.4
							c0.11-0.68,0.17-1.2,0.17-1.58l3.19,1.74c0,0.38-0.06,0.9-0.17,1.58c-0.11,0.67-0.17,1.15-0.17,1.4
							C19.26,52.03,19.43,52.52,19.75,52.94"/>
					</g>
				</g>
				<g class="st0">
					<defs>
						<path id="SVGID_83_" class="st0" d="M26.66,22.2l-3.19-1.74c3.29-2.06,7.09-3.87,11.32-5.39c2.95-1.06,5-1.67,6.14-1.83
							c0.06-0.01,0.12-0.02,0.17-0.02l3.19,1.74c-0.05,0.01-0.11,0.01-0.17,0.02c-1.14,0.16-3.2,0.76-6.14,1.83
							C33.74,18.32,29.94,20.14,26.66,22.2z"/>
					</defs>
					<clipPath id="SVGID_84_">
						<use xlink:href="#SVGID_83_"  style="overflow:visible;"/>
					</clipPath>
					<g class="st61">
						<path class="st16" d="M26.66,22.2l-3.19-1.74c1.7-1.07,3.54-2.07,5.5-2.99l3.19,1.74C30.2,20.13,28.36,21.13,26.66,22.2"/>
						<path class="st17" d="M32.16,19.2l-3.19-1.74c1.83-0.86,3.77-1.66,5.82-2.39c2.95-1.06,5-1.67,6.14-1.83
							c0.06-0.01,0.12-0.02,0.17-0.02l3.19,1.74c-0.05,0.01-0.11,0.01-0.17,0.02c-1.14,0.16-3.2,0.76-6.14,1.83
							C35.93,17.54,33.99,18.34,32.16,19.2"/>
					</g>
				</g>
				<g class="st0">
					<defs>
						<path id="SVGID_85_" class="st0" d="M26.56,21.99l-3.19-1.74c3.3-2.07,7.13-3.9,11.37-5.42c2.92-1.04,4.98-1.66,6.13-1.82
							c0.07-0.01,0.14-0.02,0.21-0.03l3.19,1.74c-0.07,0.01-0.13,0.02-0.21,0.03c-1.15,0.16-3.21,0.77-6.13,1.82
							C33.69,18.1,29.86,19.92,26.56,21.99z"/>
					</defs>
					<clipPath id="SVGID_86_">
						<use xlink:href="#SVGID_85_"  style="overflow:visible;"/>
					</clipPath>
					<g class="st62">
						<path class="st31" d="M26.56,21.99l-3.19-1.74c1.72-1.08,3.57-2.09,5.55-3.02l3.19,1.74C30.13,19.91,28.28,20.92,26.56,21.99"
							/>
						<path class="st32" d="M32.12,18.97l-3.19-1.74c1.83-0.87,3.78-1.67,5.82-2.4c2.92-1.04,4.98-1.66,6.13-1.82
							c0.07-0.01,0.14-0.02,0.21-0.03l3.19,1.74c-0.07,0.01-0.13,0.02-0.21,0.03c-1.15,0.16-3.21,0.77-6.13,1.82
							C35.89,17.31,33.95,18.11,32.12,18.97"/>
					</g>
				</g>
				<g class="st0">
					<defs>
						<path id="SVGID_87_" class="st0" d="M24.81,22.42l-3.19-1.74c0.46,0.12,0.81,0.15,1.05,0.12c0.25-0.03,0.51-0.15,0.79-0.34
							l3.19,1.74c-0.28,0.2-0.55,0.31-0.79,0.34C25.62,22.58,25.28,22.54,24.81,22.42z"/>
					</defs>
					<clipPath id="SVGID_88_">
						<use xlink:href="#SVGID_87_"  style="overflow:visible;"/>
					</clipPath>
					<g class="st63">
						<path class="st17" d="M24.81,22.42l-3.19-1.74c0.46,0.12,0.81,0.15,1.05,0.12c0.14-0.02,0.29-0.07,0.44-0.14l3.19,1.74
							c-0.15,0.07-0.3,0.12-0.44,0.14C25.62,22.58,25.28,22.54,24.81,22.42"/>
						<path class="st16" d="M26.3,22.41l-3.19-1.74c0.11-0.05,0.23-0.12,0.35-0.2l3.19,1.74C26.53,22.28,26.42,22.35,26.3,22.41"/>
						<polyline class="st10" points="26.65,22.2 23.46,20.46 23.47,20.46 26.66,22.2 26.65,22.2 						"/>
					</g>
				</g>
				<g class="st0">
					<defs>
						<path id="SVGID_89_" class="st0" d="M19.87,26.41l-3.19-1.74c0-0.69,0.41-1.46,1.21-2.27c0.82-0.83,1.73-1.42,2.7-1.75
							c0.06-0.02,0.12-0.03,0.18-0.04c0.23-0.03,0.51,0,0.85,0.07l3.19,1.74c-0.34-0.07-0.62-0.1-0.85-0.07
							c-0.07,0.01-0.13,0.02-0.18,0.04c-0.97,0.33-1.88,0.91-2.7,1.75C20.28,24.95,19.87,25.72,19.87,26.41z"/>
					</defs>
					<clipPath id="SVGID_90_">
						<use xlink:href="#SVGID_89_"  style="overflow:visible;"/>
					</clipPath>
					<g class="st64">
						<path class="st8" d="M19.87,26.41l-3.19-1.74c0-0.23,0.05-0.47,0.14-0.71L20,25.7C19.91,25.94,19.87,26.18,19.87,26.41"/>
						<path class="st2" d="M20,25.7l-3.19-1.74c0.05-0.13,0.1-0.25,0.17-0.38l3.19,1.74C20.11,25.44,20.05,25.57,20,25.7"/>
						<path class="st6" d="M20.18,25.31l-3.19-1.74c0.07-0.13,0.15-0.27,0.25-0.4l3.19,1.74C20.33,25.05,20.25,25.18,20.18,25.31"/>
						<path class="st5" d="M20.43,24.91l-3.19-1.74c0.11-0.16,0.24-0.32,0.38-0.48l3.19,1.74C20.66,24.59,20.54,24.75,20.43,24.91"
							/>
						<path class="st11" d="M20.81,24.43l-3.19-1.74c0.08-0.1,0.18-0.19,0.27-0.29c0.12-0.12,0.24-0.24,0.36-0.35l3.19,1.74
							c-0.12,0.11-0.24,0.23-0.36,0.35C20.98,24.24,20.89,24.33,20.81,24.43"/>
						<path class="st10" d="M21.44,23.79l-3.19-1.74c0.24-0.22,0.49-0.41,0.75-0.59l3.19,1.74C21.93,23.38,21.68,23.58,21.44,23.79"
							/>
						<path class="st16" d="M22.19,23.2L19,21.47c0.31-0.21,0.62-0.39,0.94-0.54l3.19,1.74C22.81,22.81,22.49,22.99,22.19,23.2"/>
						<path class="st17" d="M23.13,22.66l-3.19-1.74c0.21-0.1,0.43-0.19,0.65-0.26c0.06-0.02,0.12-0.03,0.18-0.04
							c0.23-0.03,0.51,0,0.85,0.07l3.19,1.74c-0.34-0.07-0.62-0.1-0.85-0.07c-0.07,0.01-0.13,0.02-0.18,0.04
							C23.56,22.47,23.34,22.56,23.13,22.66"/>
					</g>
				</g>
				<g class="st0">
					<defs>
						<path id="SVGID_91_" class="st0" d="M23.74,22.16l-3.19-1.74c0.07-0.02,0.14-0.04,0.22-0.05c0.26-0.04,0.56-0.01,0.93,0.08
							c0.43,0.1,0.77,0.14,0.98,0.11c0.21-0.03,0.44-0.13,0.7-0.31l3.19,1.74c-0.26,0.17-0.49,0.28-0.7,0.31
							c-0.21,0.03-0.54-0.01-0.98-0.11c-0.36-0.09-0.67-0.11-0.93-0.08C23.88,22.12,23.81,22.14,23.74,22.16z"/>
					</defs>
					<clipPath id="SVGID_92_">
						<use xlink:href="#SVGID_91_"  style="overflow:visible;"/>
					</clipPath>
					<g class="st65">
						<path class="st32" d="M23.74,22.16l-3.19-1.74c0.07-0.02,0.14-0.04,0.22-0.05c0.26-0.04,0.56-0.01,0.93,0.08
							c0.43,0.1,0.77,0.14,0.98,0.11c0.12-0.02,0.24-0.06,0.38-0.12l3.19,1.74c-0.13,0.06-0.26,0.1-0.38,0.12
							c-0.21,0.03-0.54-0.01-0.98-0.11c-0.36-0.09-0.67-0.11-0.93-0.08C23.88,22.12,23.81,22.14,23.74,22.16"/>
						<path class="st31" d="M26.24,22.18l-3.19-1.74c0.1-0.05,0.21-0.11,0.32-0.19l3.19,1.74C26.45,22.07,26.34,22.13,26.24,22.18"
							/>
					</g>
				</g>
				<g>
					<polygon class="st66" points="19.83,48.46 16.63,46.72 16.68,24.67 19.87,26.41 					"/>
				</g>
				<g>
					<polygon class="st55" points="19.6,48.49 16.41,46.75 16.45,24.71 19.64,26.44 					"/>
				</g>
				<g>
					<path class="st67" d="M53.86,23c0.1,0.57-0.18,1.29-0.84,2.2c-0.65,0.89-1.36,1.47-2.1,1.73c-0.1,0.03-0.21,0.06-0.33,0.07
						c-0.54,0.08-1.25,0-2.16-0.24c-1.3-0.3-2.27-0.46-2.9-0.47c-0.33,0.01-0.68,0.04-1.05,0.09c-1.4,0.2-3.06,0.72-4.94,1.55
						c-2.94,1.29-5.54,3.06-7.73,5.28l-0.01,7.75c1.85-1.14,3.66-1.85,5.39-2.09c2.6-0.36,5.81,0.76,9.56,3.37
						c3.76,2.61,5.66,5.18,5.66,7.65c-0.01,7.56-1.82,14.89-5.38,21.79c-3.57,6.93-7.59,10.76-11.95,11.37
						c-2.23,0.31-5.72-0.98-10.37-3.83c-4.72-2.91-7.11-5.33-7.29-7.41c-0.09-1.04,0.19-2.1,0.84-3.17c0.65-1.07,1.46-1.7,2.4-1.88
						c0.05-0.01,0.11-0.02,0.16-0.03c1.42-0.2,3.34,0.72,5.74,2.74c3.09,2.74,4.04,3.49,4.26,3.6c2.31-1.73,4.7-5.2,7.11-10.29
						c2.34-4.93,3.53-8.75,3.54-11.35c0-1.55-0.67-2.21-2.05-2.01c-1.33,0.19-3.17,1.5-5.5,3.89c-3.57,3.68-3.72,3.7-3.81,3.72
						c-1.04,0.15-2.7-0.22-5.13-1.12c-2.49-0.92-4.23-1.92-5.19-2.96c-0.33-0.42-0.49-0.92-0.49-1.48c0-0.25,0.06-0.73,0.17-1.4
						c0.11-0.68,0.17-1.2,0.17-1.58l0.04-22.05c0-0.77,0.44-1.6,1.3-2.47c0.85-0.86,1.79-1.47,2.8-1.81
						c0.07-0.02,0.14-0.04,0.22-0.05c0.26-0.04,0.56-0.01,0.93,0.08c0.43,0.1,0.77,0.14,0.98,0.11c0.21-0.03,0.44-0.13,0.7-0.31
						c3.3-2.07,7.13-3.9,11.37-5.42c2.92-1.04,4.98-1.66,6.13-1.82c0.07-0.01,0.14-0.02,0.21-0.03c0.47-0.16,0.95-0.32,1.39-0.49
						c0.08-0.02,0.15-0.03,0.23-0.04c0.45-0.06,0.85,0.01,1.21,0.23c1.22,0.8,2.58,2.13,4.03,3.92C52.71,20.29,53.63,21.85,53.86,23
						z M52.85,25.07c0.61-0.84,0.88-1.51,0.8-1.99c-0.22-1.12-1.12-2.65-2.68-4.55c-1.44-1.79-2.77-3.09-3.98-3.89
						c-0.32-0.18-0.68-0.25-1.07-0.2c-0.07,0.01-0.14,0.02-0.21,0.04c-0.44,0.16-0.91,0.32-1.41,0.48
						c-0.05,0.01-0.11,0.01-0.17,0.02c-1.14,0.16-3.2,0.76-6.14,1.83c-4.23,1.51-8.03,3.32-11.32,5.39
						c-0.28,0.2-0.55,0.31-0.79,0.34c-0.24,0.03-0.58,0-1.05-0.12c-0.34-0.07-0.62-0.1-0.85-0.07c-0.07,0.01-0.13,0.02-0.18,0.04
						c-0.97,0.33-1.88,0.91-2.7,1.75c-0.8,0.81-1.21,1.58-1.21,2.27l-0.04,22.05c0,0.4-0.06,0.93-0.18,1.62
						c-0.11,0.66-0.17,1.12-0.17,1.36c0,0.52,0.15,0.95,0.45,1.33c0.93,1.02,2.65,2,5.11,2.91c2.35,0.87,4.01,1.25,4.92,1.13
						c0.2-0.06,0.82-0.6,3.78-3.65c2.37-2.44,4.27-3.78,5.65-3.97c1.51-0.21,2.28,0.54,2.28,2.22c0,2.65-1.21,6.51-3.56,11.47
						c-2.45,5.18-4.89,8.68-7.26,10.44c-0.18,0.01-0.38-0.02-4.46-3.64c-2.36-1.98-4.24-2.89-5.59-2.7L20.63,67
						c-0.87,0.16-1.61,0.76-2.22,1.76c-0.62,1-0.88,2.02-0.8,2.99c0.17,1.98,2.59,4.42,7.19,7.25c4.62,2.83,8.06,4.11,10.24,3.81
						c4.28-0.6,8.24-4.37,11.76-11.22c3.54-6.87,5.34-14.16,5.36-21.67c0-2.39-1.87-4.91-5.58-7.47c-3.71-2.57-6.89-3.69-9.43-3.33
						c-1.74,0.24-3.57,0.97-5.45,2.15l-0.16,0.09l0.02-8.22c2.26-2.31,4.91-4.12,7.9-5.41c1.89-0.85,3.57-1.38,5-1.58
						c0.38-0.05,0.74-0.08,1.09-0.09c0.64,0.01,1.63,0.17,2.94,0.47c0.88,0.23,1.57,0.31,2.08,0.24c0.11-0.02,0.21-0.04,0.3-0.07
						C51.57,26.46,52.24,25.91,52.85,25.07"/>
				</g>
				<g>
					<path class="st68" d="M45.91,14.44c0.39-0.05,0.75,0.02,1.07,0.2c1.21,0.8,2.54,2.11,3.98,3.89c1.56,1.9,2.46,3.43,2.68,4.55
						c0.08,0.48-0.19,1.15-0.8,1.99c-0.61,0.84-1.28,1.39-1.97,1.63c-0.09,0.03-0.19,0.05-0.3,0.07c-0.51,0.07-1.21-0.01-2.08-0.24
						c-1.31-0.3-2.3-0.46-2.94-0.47c-0.34,0.01-0.71,0.04-1.09,0.09c-1.43,0.2-3.1,0.73-5,1.58c-2.99,1.29-5.64,3.11-7.86,5.37
						l-0.06,8.26l0.16-0.09c1.88-1.18,3.71-1.9,5.45-2.15c2.54-0.36,5.72,0.76,9.43,3.33c3.7,2.57,5.58,5.08,5.58,7.47
						c-0.01,7.51-1.82,14.8-5.36,21.67c-3.52,6.85-7.48,10.62-11.76,11.22c-2.19,0.31-5.63-0.97-10.24-3.81
						c-4.6-2.83-7.02-5.27-7.19-7.25c-0.09-0.97,0.18-1.99,0.8-2.99c0.61-1,1.36-1.6,2.22-1.76l0.16-0.03
						c1.35-0.19,3.23,0.72,5.59,2.7c4.09,3.63,4.29,3.65,4.38,3.66c2.45-1.78,4.89-5.29,7.34-10.46c2.36-4.96,3.56-8.82,3.56-11.47
						c0-1.69-0.76-2.43-2.28-2.22c-1.38,0.19-3.28,1.53-5.65,3.97c-2.96,3.05-3.58,3.6-3.67,3.64c-1.01,0.15-2.67-0.23-5.03-1.11
						c-2.46-0.92-4.18-1.89-5.11-2.91c-0.3-0.38-0.45-0.81-0.45-1.33c0-0.23,0.06-0.69,0.17-1.36c0.12-0.69,0.18-1.23,0.18-1.62
						l0.04-22.05c0-0.69,0.41-1.46,1.21-2.27c0.82-0.83,1.73-1.42,2.7-1.75c0.06-0.02,0.12-0.03,0.18-0.04
						c0.23-0.03,0.51,0,0.85,0.07c0.46,0.12,0.81,0.15,1.05,0.12c0.25-0.03,0.51-0.15,0.79-0.34c3.29-2.06,7.09-3.87,11.32-5.39
						c2.95-1.06,5-1.67,6.14-1.83c0.06-0.01,0.12-0.02,0.17-0.02c0.5-0.16,0.97-0.33,1.41-0.48C45.77,14.46,45.84,14.45,45.91,14.44
						z"/>
				</g>
				<g class="st0">
					<defs>
						<path id="SVGID_93_" class="st0" d="M19.64,26.44l-3.19-1.74c0-0.77,0.44-1.6,1.3-2.47c0.85-0.86,1.79-1.47,2.8-1.81
							l3.19,1.74c-1.01,0.34-1.95,0.95-2.8,1.81C20.08,24.84,19.64,25.67,19.64,26.44z"/>
					</defs>
					<clipPath id="SVGID_94_">
						<use xlink:href="#SVGID_93_"  style="overflow:visible;"/>
					</clipPath>
					<g class="st69">
						<path class="st29" d="M19.64,26.44l-3.19-1.74c0-0.26,0.05-0.53,0.15-0.81l3.19,1.74C19.69,25.91,19.64,26.18,19.64,26.44"/>
						<path class="st28" d="M19.8,25.63L16.6,23.9c0.05-0.14,0.11-0.28,0.19-0.42l3.19,1.74C19.91,25.35,19.85,25.49,19.8,25.63"/>
						<path class="st27" d="M19.99,25.21l-3.19-1.74c0.08-0.14,0.16-0.28,0.27-0.43l3.19,1.74C20.15,24.93,20.06,25.07,19.99,25.21"
							/>
						<path class="st26" d="M20.25,24.78l-3.19-1.74c0.12-0.17,0.25-0.33,0.4-0.5l3.19,1.74C20.5,24.45,20.37,24.62,20.25,24.78"/>
						<path class="st25" d="M20.65,24.28l-3.19-1.74c0.09-0.1,0.19-0.21,0.29-0.31c0.12-0.13,0.25-0.25,0.38-0.36l3.19,1.74
							c-0.13,0.11-0.25,0.23-0.38,0.36C20.84,24.07,20.74,24.18,20.65,24.28"/>
						<path class="st19" d="M21.32,23.61l-3.19-1.74c0.25-0.23,0.51-0.43,0.78-0.62l3.19,1.74C21.83,23.17,21.57,23.38,21.32,23.61"
							/>
						<path class="st31" d="M22.1,22.99l-3.19-1.74c0.31-0.22,0.64-0.4,0.97-0.56l3.19,1.74C22.74,22.59,22.41,22.77,22.1,22.99"/>
						<path class="st32" d="M23.07,22.43l-3.19-1.74c0.22-0.1,0.44-0.19,0.67-0.27l3.19,1.74C23.51,22.23,23.29,22.32,23.07,22.43"
							/>
					</g>
				</g>
			</g>
		</g>
	</g>
</g>
<g id="Layer_3">
</g>
<g id="Layer_2">
	<g>
		<g>
			<g class="st0">
				<g class="st0">
					<defs>
						<path id="SVGID_95_" class="st0" d="M67.81,82.9l-3.19-1.74c1.22,0.23,2.27,0.28,3.11,0.16c5.29-0.74,9.39-6.02,12.18-15.68
							l3.19,1.74c-2.79,9.66-6.89,14.94-12.18,15.68C70.08,83.18,69.03,83.13,67.81,82.9z"/>
					</defs>
					<clipPath id="SVGID_96_">
						<use xlink:href="#SVGID_95_"  style="overflow:visible;"/>
					</clipPath>
					<g class="st70">
						<path class="st32" d="M67.81,82.9l-3.19-1.74c1.22,0.23,2.27,0.28,3.11,0.16c0.9-0.13,1.77-0.39,2.6-0.78l3.19,1.74
							c-0.83,0.39-1.7,0.65-2.6,0.78C70.08,83.18,69.03,83.13,67.81,82.9"/>
						<path class="st31" d="M73.52,82.29l-3.19-1.74c0.5-0.23,0.98-0.51,1.45-0.84l3.19,1.74C74.5,81.78,74.02,82.06,73.52,82.29"/>
						<path class="st19" d="M74.97,81.45l-3.19-1.74c0.4-0.28,0.8-0.59,1.18-0.94l3.19,1.74C75.77,80.86,75.37,81.17,74.97,81.45"/>
						<path class="st25" d="M76.15,80.52l-3.19-1.74c0.39-0.35,0.76-0.73,1.13-1.15l3.19,1.74C76.91,79.79,76.54,80.17,76.15,80.52"
							/>
						<path class="st26" d="M77.28,79.37l-3.19-1.74c0.42-0.47,0.82-0.99,1.21-1.54l3.19,1.74C78.1,78.39,77.7,78.9,77.28,79.37"/>
						<path class="st27" d="M78.49,77.83l-3.19-1.74c0.5-0.72,0.98-1.5,1.44-2.36l3.19,1.74C79.48,76.32,78.99,77.11,78.49,77.83"/>
						<path class="st28" d="M79.94,75.47l-3.19-1.74c0.72-1.34,1.39-2.86,2.01-4.54l3.19,1.74C81.33,72.61,80.66,74.12,79.94,75.47"
							/>
						<path class="st29" d="M81.95,70.92l-3.19-1.74c0.41-1.11,0.79-2.28,1.15-3.54l3.19,1.74C82.74,68.64,82.35,69.82,81.95,70.92"
							/>
					</g>
				</g>
				<g class="st0">
					<defs>
						<path id="SVGID_97_" class="st0" d="M64.54,82.22l-3.19-1.74c0.18,0.01,1.26,0.24,3.27,0.68l3.19,1.74
							C65.8,82.46,64.72,82.23,64.54,82.22z"/>
					</defs>
					<clipPath id="SVGID_98_">
						<use xlink:href="#SVGID_97_"  style="overflow:visible;"/>
					</clipPath>
					<g class="st71">
						<path class="st32" d="M64.54,82.22l-3.19-1.74c0.18,0.01,1.26,0.24,3.27,0.68l3.19,1.74C65.8,82.46,64.72,82.23,64.54,82.22"
							/>
					</g>
				</g>
				<g class="st0">
					<defs>
						<path id="SVGID_99_" class="st0" d="M64.73,72.07c0.09-0.04,0.19-0.1,0.28-0.15c1.06,0.58,2.13,1.16,3.19,1.74
							c-0.09,0.06-0.19,0.11-0.28,0.15C66.86,73.23,65.8,72.65,64.73,72.07z"/>
					</defs>
					<clipPath id="SVGID_100_">
						<use xlink:href="#SVGID_99_"  style="overflow:visible;"/>
					</clipPath>
					<g class="st72">
						<path class="st17" d="M67.05,73.98l-3.19-1.74c0.09,0.02,0.17,0.03,0.26,0.01c0.21-0.03,0.42-0.09,0.63-0.19l3.19,1.74
							c-0.2,0.1-0.41,0.16-0.63,0.19C67.22,74.01,67.13,74,67.05,73.98"/>
						<path class="st16" d="M67.93,73.81l-3.19-1.74c0.13-0.06,0.25-0.13,0.38-0.22l3.19,1.74C68.18,73.67,68.06,73.75,67.93,73.81"
							/>
					</g>
				</g>
				<g class="st0">
					<defs>
						<path id="SVGID_101_" class="st0" d="M68.44,64.86c1.06,0.58,2.13,1.16,3.19,1.74c-0.96,3.89-2.08,6.22-3.43,7.06
							c-1.06-0.58-2.13-1.16-3.19-1.74C66.36,71.08,67.49,68.75,68.44,64.86z"/>
					</defs>
					<clipPath id="SVGID_102_">
						<use xlink:href="#SVGID_101_"  style="overflow:visible;"/>
					</clipPath>
					<g class="st73">
						<path class="st16" d="M67.93,73.81l-3.19-1.74c0.13-0.06,0.25-0.13,0.38-0.22l3.19,1.74C68.18,73.67,68.06,73.75,67.93,73.81"
							/>
						<path class="st10" d="M68.31,73.59l-3.19-1.74c0.11-0.08,0.22-0.16,0.33-0.26l3.19,1.74C68.53,73.42,68.42,73.51,68.31,73.59"
							/>
						<path class="st11" d="M68.64,73.33l-3.19-1.74c0.11-0.1,0.22-0.22,0.33-0.34l3.19,1.74C68.86,73.11,68.75,73.23,68.64,73.33"
							/>
						<path class="st5" d="M68.97,72.99l-3.19-1.74c0.13-0.15,0.26-0.31,0.38-0.49l3.19,1.74C69.23,72.68,69.1,72.84,68.97,72.99"/>
						<path class="st6" d="M69.36,72.5l-3.19-1.74c0.17-0.24,0.34-0.52,0.5-0.82l3.19,1.74C69.69,71.98,69.53,72.25,69.36,72.5"/>
						<path class="st2" d="M69.86,71.67l-3.19-1.74c0.28-0.53,0.56-1.15,0.82-1.87l3.19,1.74C70.41,70.52,70.14,71.14,69.86,71.67"
							/>
						<path class="st8" d="M70.68,69.81l-3.19-1.74c0.47-1.29,0.91-2.87,1.31-4.76l3.19,1.74C71.58,66.94,71.15,68.52,70.68,69.81"
							/>
					</g>
				</g>
				<g class="st0">
					<defs>
						<path id="SVGID_103_" class="st0" d="M64.32,72.22c0.14-0.03,0.28-0.08,0.41-0.15c1.06,0.58,2.13,1.16,3.19,1.74
							c-0.14,0.06-0.27,0.11-0.41,0.15C66.45,73.38,65.38,72.8,64.32,72.22z"/>
					</defs>
					<clipPath id="SVGID_104_">
						<use xlink:href="#SVGID_103_"  style="overflow:visible;"/>
					</clipPath>
					<g class="st74">
						<path class="st17" d="M67.05,73.98l-3.19-1.74c0.09,0.02,0.17,0.03,0.26,0.01c0.21-0.03,0.42-0.09,0.63-0.19l3.19,1.74
							c-0.2,0.1-0.41,0.16-0.63,0.19C67.22,74.01,67.13,74,67.05,73.98"/>
					</g>
				</g>
				<g class="st0">
					<defs>
						<path id="SVGID_105_" class="st0" d="M64.32,72.22c0.05,0.01,0.08,0.04,0.12,0.06c1.03,0.56,2.05,1.12,3.08,1.67
							c-0.07,0.02-0.14,0.03-0.21,0.04c-1.06-0.58-2.13-1.16-3.19-1.74C64.18,72.25,64.25,72.24,64.32,72.22z"/>
					</defs>
					<clipPath id="SVGID_106_">
						<use xlink:href="#SVGID_105_"  style="overflow:visible;"/>
					</clipPath>
					<g class="st75">
						<path class="st17" d="M67.05,73.98l-3.19-1.74c0.09,0.02,0.17,0.03,0.26,0.01c0.21-0.03,0.42-0.09,0.63-0.19l3.19,1.74
							c-0.2,0.1-0.41,0.16-0.63,0.19C67.22,74.01,67.13,74,67.05,73.98"/>
					</g>
				</g>
				<g class="st0">
					<defs>
						<path id="SVGID_107_" class="st0" d="M64,72.27c0.04,0,0.08,0,0.11-0.01c1.06,0.58,2.13,1.16,3.19,1.74
							C67.26,74,67.23,74,67.19,74C66.12,73.42,65.06,72.84,64,72.27z"/>
					</defs>
					<clipPath id="SVGID_108_">
						<use xlink:href="#SVGID_107_"  style="overflow:visible;"/>
					</clipPath>
					<g class="st76">
						<path class="st17" d="M67.05,73.98l-3.19-1.74c0.09,0.02,0.17,0.03,0.26,0.01c0.21-0.03,0.42-0.09,0.63-0.19l3.19,1.74
							c-0.2,0.1-0.41,0.16-0.63,0.19C67.22,74.01,67.13,74,67.05,73.98"/>
					</g>
				</g>
				<g class="st0">
					<defs>
						<path id="SVGID_109_" class="st0" d="M63.98,72.27c0,0,0.01,0,0.01,0c1.06,0.58,2.13,1.16,3.19,1.74c0,0-0.01,0-0.01,0
							C66.11,73.42,65.05,72.84,63.98,72.27z"/>
					</defs>
					<clipPath id="SVGID_110_">
						<use xlink:href="#SVGID_109_"  style="overflow:visible;"/>
					</clipPath>
					<g class="st77">
						<path class="st17" d="M67.05,73.98l-3.19-1.74c0.09,0.02,0.17,0.03,0.26,0.01c0.21-0.03,0.42-0.09,0.63-0.19l3.19,1.74
							c-0.2,0.1-0.41,0.16-0.63,0.19C67.22,74.01,67.13,74,67.05,73.98"/>
					</g>
				</g>
				<g class="st0">
					<defs>
						<path id="SVGID_111_" class="st0" d="M68.58,64.3c0.07-0.32,0.15-0.65,0.22-0.99l3.19,1.74c-0.07,0.34-0.15,0.67-0.22,0.99
							C70.7,65.46,69.64,64.88,68.58,64.3z"/>
					</defs>
					<clipPath id="SVGID_112_">
						<use xlink:href="#SVGID_111_"  style="overflow:visible;"/>
					</clipPath>
					<g class="st78">
						<path class="st8" d="M70.68,69.81l-3.19-1.74c0.47-1.29,0.91-2.87,1.31-4.76l3.19,1.74C71.58,66.94,71.15,68.52,70.68,69.81"
							/>
					</g>
				</g>
				<g class="st0">
					<defs>
						<path id="SVGID_113_" class="st0" d="M68.8,63.31c0.03-0.17,0.07-0.33,0.1-0.5c1.06,0.58,2.13,1.16,3.19,1.74
							c-0.03,0.17-0.07,0.34-0.1,0.5C71.03,64.53,69.75,63.83,68.8,63.31z"/>
					</defs>
					<clipPath id="SVGID_114_">
						<use xlink:href="#SVGID_113_"  style="overflow:visible;"/>
					</clipPath>
					<g class="st79">
						<path class="st8" d="M71.99,65.05l-3.19-1.74c1-4.97,1.52-10.71,1.53-17.05c0.01-4.65-0.27-8.46-0.84-11.34
							c-0.52-2.51-1.2-3.98-2.06-4.45l3.19,1.74c0.86,0.47,1.54,1.94,2.06,4.45c0.56,2.88,0.84,6.68,0.84,11.34
							C73.5,54.34,72.99,60.07,71.99,65.05"/>
					</g>
				</g>
				<g class="st0">
					<defs>
						<path id="SVGID_115_" class="st0" d="M63.98,72.27c0.05,0.01,0.1,0.05,0.14,0.08c1.02,0.55,2.03,1.11,3.05,1.66
							c-0.11-0.01-0.21-0.04-0.32-0.1l-3.19-1.74C63.77,72.23,63.88,72.26,63.98,72.27z"/>
					</defs>
					<clipPath id="SVGID_116_">
						<use xlink:href="#SVGID_115_"  style="overflow:visible;"/>
					</clipPath>
					<g class="st80">
						<path class="st10" d="M66.85,73.91l-3.19-1.74c0.01,0.01,0.02,0.01,0.03,0.02l3.19,1.74C66.88,73.92,66.87,73.91,66.85,73.91"
							/>
						<path class="st16" d="M66.89,73.92l-3.19-1.74c0.05,0.03,0.1,0.04,0.16,0.06l3.19,1.74C66.99,73.97,66.94,73.95,66.89,73.92"
							/>
						<path class="st17" d="M67.05,73.98l-3.19-1.74c0.09,0.02,0.17,0.03,0.26,0.01c0.21-0.03,0.42-0.09,0.63-0.19l3.19,1.74
							c-0.2,0.1-0.41,0.16-0.63,0.19C67.22,74.01,67.13,74,67.05,73.98"/>
					</g>
				</g>
				<g class="st0">
					<defs>
						<path id="SVGID_117_" class="st0" d="M66.97,73.69l-3.19-1.74c0.12,0.07,0.23,0.08,0.33,0.07c1.79-0.25,3.29-3.19,4.47-8.74
							l3.19,1.74c-1.18,5.55-2.68,8.49-4.47,8.74C67.2,73.78,67.09,73.76,66.97,73.69z"/>
					</defs>
					<clipPath id="SVGID_118_">
						<use xlink:href="#SVGID_117_"  style="overflow:visible;"/>
					</clipPath>
					<g class="st81">
						<path class="st19" d="M66.97,73.69l-3.19-1.74c0.01,0,0.02,0.01,0.03,0.01L67,73.71C66.99,73.7,66.98,73.7,66.97,73.69"/>
						<path class="st31" d="M67,73.71l-3.19-1.74c0.04,0.02,0.08,0.03,0.12,0.04l3.19,1.74C67.08,73.74,67.04,73.73,67,73.71"/>
						<path class="st32" d="M67.11,73.75l-3.19-1.74c0.07,0.02,0.13,0.02,0.19,0.01c0.19-0.03,0.37-0.08,0.55-0.17l3.19,1.74
							c-0.18,0.08-0.36,0.14-0.55,0.17C67.24,73.77,67.18,73.77,67.11,73.75"/>
						<path class="st31" d="M67.85,73.6l-3.19-1.74c0.11-0.05,0.23-0.12,0.34-0.2l3.19,1.74C68.08,73.48,67.97,73.54,67.85,73.6"/>
						<path class="st19" d="M68.19,73.4L65,71.66c0.1-0.07,0.2-0.15,0.3-0.24l3.19,1.74C68.39,73.25,68.29,73.33,68.19,73.4"/>
						<path class="st25" d="M68.49,73.16l-3.19-1.74c0.11-0.1,0.21-0.2,0.31-0.32l3.19,1.74C68.7,72.96,68.6,73.06,68.49,73.16"/>
						<path class="st26" d="M68.81,72.84l-3.19-1.74c0.13-0.14,0.25-0.3,0.37-0.47l3.19,1.74C69.06,72.54,68.93,72.7,68.81,72.84"/>
						<path class="st27" d="M69.18,72.37l-3.19-1.74c0.17-0.24,0.33-0.51,0.49-0.8l3.19,1.74C69.51,71.86,69.34,72.13,69.18,72.37"
							/>
						<path class="st28" d="M69.67,71.56l-3.19-1.74c0.28-0.52,0.55-1.14,0.81-1.84l3.19,1.74C70.22,70.43,69.95,71.04,69.67,71.56"
							/>
						<path class="st29" d="M70.48,69.72l-3.19-1.74c0.47-1.27,0.9-2.84,1.29-4.7l3.19,1.74C71.38,66.88,70.94,68.45,70.48,69.72"/>
					</g>
				</g>
				<g class="st0">
					<defs>
						<path id="SVGID_119_" class="st0" d="M68.9,62.81c0.11-0.55,0.21-1.11,0.3-1.68c1.06,0.58,2.13,1.16,3.19,1.74
							c-0.09,0.57-0.2,1.13-0.3,1.68C71.02,63.97,69.96,63.39,68.9,62.81z"/>
					</defs>
					<clipPath id="SVGID_120_">
						<use xlink:href="#SVGID_119_"  style="overflow:visible;"/>
					</clipPath>
					<g class="st82">
						<path class="st8" d="M71.99,65.05l-3.19-1.74c1-4.97,1.52-10.71,1.53-17.05c0.01-4.65-0.27-8.46-0.84-11.34
							c-0.52-2.51-1.2-3.98-2.06-4.45l3.19,1.74c0.86,0.47,1.54,1.94,2.06,4.45c0.56,2.88,0.84,6.68,0.84,11.34
							C73.5,54.34,72.99,60.07,71.99,65.05"/>
					</g>
				</g>
				<g class="st0">
					<defs>
						<path id="SVGID_121_" class="st0" d="M69.24,60.88c1.06,0.58,2.13,1.16,3.19,1.74c-0.01,0.08-0.03,0.17-0.04,0.25
							c-0.6-0.33-1.2-0.65-1.8-0.98c-0.46-0.25-0.92-0.5-1.39-0.75C69.21,61.04,69.23,60.96,69.24,60.88z"/>
					</defs>
					<clipPath id="SVGID_122_">
						<use xlink:href="#SVGID_121_"  style="overflow:visible;"/>
					</clipPath>
					<g class="st83">
						<path class="st8" d="M71.99,65.05l-3.19-1.74c1-4.97,1.52-10.71,1.53-17.05c0.01-4.65-0.27-8.46-0.84-11.34
							c-0.52-2.51-1.2-3.98-2.06-4.45l3.19,1.74c0.86,0.47,1.54,1.94,2.06,4.45c0.56,2.88,0.84,6.68,0.84,11.34
							C73.5,54.34,72.99,60.07,71.99,65.05"/>
					</g>
				</g>
				<g class="st0">
					<defs>
						<path id="SVGID_123_" class="st0" d="M69.24,60.88c0.38-2.32,0.66-4.79,0.84-7.38c1.06,0.58,2.13,1.16,3.19,1.74
							c-0.18,2.6-0.46,5.06-0.84,7.38C71.37,62.03,70.3,61.45,69.24,60.88z"/>
					</defs>
					<clipPath id="SVGID_124_">
						<use xlink:href="#SVGID_123_"  style="overflow:visible;"/>
					</clipPath>
					<g class="st84">
						<path class="st8" d="M71.99,65.05l-3.19-1.74c1-4.97,1.52-10.71,1.53-17.05c0.01-4.65-0.27-8.46-0.84-11.34
							c-0.52-2.51-1.2-3.98-2.06-4.45l3.19,1.74c0.86,0.47,1.54,1.94,2.06,4.45c0.56,2.88,0.84,6.68,0.84,11.34
							C73.5,54.34,72.99,60.07,71.99,65.05"/>
					</g>
				</g>
				<g class="st0">
					<defs>
						<path id="SVGID_125_" class="st0" d="M70.08,53.49c0.05-0.75,0.1-1.51,0.13-2.29c1.06,0.58,2.13,1.16,3.19,1.74
							c-0.04,0.77-0.08,1.53-0.13,2.28C72.2,54.65,71.14,54.07,70.08,53.49z"/>
					</defs>
					<clipPath id="SVGID_126_">
						<use xlink:href="#SVGID_125_"  style="overflow:visible;"/>
					</clipPath>
					<g class="st85">
						<path class="st8" d="M71.99,65.05l-3.19-1.74c1-4.97,1.52-10.71,1.53-17.05c0.01-4.65-0.27-8.46-0.84-11.34
							c-0.52-2.51-1.2-3.98-2.06-4.45l3.19,1.74c0.86,0.47,1.54,1.94,2.06,4.45c0.56,2.88,0.84,6.68,0.84,11.34
							C73.5,54.34,72.99,60.07,71.99,65.05"/>
					</g>
				</g>
				<g class="st0">
					<defs>
						<path id="SVGID_127_" class="st0" d="M57.13,80.51l-3.19-1.74c0.34,0.19,0.7,0.31,1.06,0.38c2.95,0.57,5.08,1.01,6.35,1.33
							l3.19,1.74c-1.26-0.31-3.4-0.76-6.35-1.33C57.83,80.83,57.47,80.7,57.13,80.51z"/>
					</defs>
					<clipPath id="SVGID_128_">
						<use xlink:href="#SVGID_127_"  style="overflow:visible;"/>
					</clipPath>
					<g class="st86">
						<path class="st19" d="M57.13,80.51l-3.19-1.74c0.05,0.03,0.09,0.05,0.14,0.07l3.19,1.74C57.23,80.57,57.18,80.54,57.13,80.51"
							/>
						<path class="st31" d="M57.27,80.59l-3.19-1.74c0.22,0.11,0.45,0.19,0.68,0.25l3.19,1.74C57.72,80.78,57.5,80.7,57.27,80.59"/>
						<path class="st32" d="M57.95,80.84l-3.19-1.74c0.08,0.02,0.16,0.04,0.24,0.05c2.95,0.57,5.08,1.01,6.35,1.33l3.19,1.74
							c-1.26-0.31-3.4-0.76-6.35-1.33C58.11,80.88,58.03,80.86,57.95,80.84"/>
					</g>
				</g>
				<g class="st0">
					<defs>
						<path id="SVGID_129_" class="st0" d="M70.26,49.88c0.04-1.18,0.06-2.39,0.06-3.62c1.06,0.58,2.13,1.16,3.19,1.74
							c0,1.23-0.02,2.44-0.06,3.62C72.39,51.03,71.33,50.45,70.26,49.88z"/>
					</defs>
					<clipPath id="SVGID_130_">
						<use xlink:href="#SVGID_129_"  style="overflow:visible;"/>
					</clipPath>
					<g class="st87">
						<path class="st8" d="M71.99,65.05l-3.19-1.74c1-4.97,1.52-10.71,1.53-17.05c0.01-4.65-0.27-8.46-0.84-11.34
							c-0.52-2.51-1.2-3.98-2.06-4.45l3.19,1.74c0.86,0.47,1.54,1.94,2.06,4.45c0.56,2.88,0.84,6.68,0.84,11.34
							C73.5,54.34,72.99,60.07,71.99,65.05"/>
					</g>
				</g>
				<g class="st0">
					<defs>
						<path id="SVGID_131_" class="st0" d="M70.19,40.98c1.06,0.58,2.13,1.16,3.19,1.74c0.09,1.61,0.14,3.37,0.13,5.27
							c-1.06-0.58-2.13-1.16-3.19-1.74C70.33,44.36,70.28,42.6,70.19,40.98z"/>
					</defs>
					<clipPath id="SVGID_132_">
						<use xlink:href="#SVGID_131_"  style="overflow:visible;"/>
					</clipPath>
					<g class="st88">
						<path class="st8" d="M71.99,65.05l-3.19-1.74c1-4.97,1.52-10.71,1.53-17.05c0.01-4.65-0.27-8.46-0.84-11.34
							c-0.52-2.51-1.2-3.98-2.06-4.45l3.19,1.74c0.86,0.47,1.54,1.94,2.06,4.45c0.56,2.88,0.84,6.68,0.84,11.34
							C73.5,54.34,72.99,60.07,71.99,65.05"/>
					</g>
				</g>
				<g class="st0">
					<defs>
						<path id="SVGID_133_" class="st0" d="M70.19,40.98c-0.01-0.17-0.02-0.34-0.03-0.5c1.06,0.58,2.13,1.16,3.19,1.74
							c0.01,0.17,0.02,0.33,0.03,0.5C72.32,42.14,71.26,41.56,70.19,40.98z"/>
					</defs>
					<clipPath id="SVGID_134_">
						<use xlink:href="#SVGID_133_"  style="overflow:visible;"/>
					</clipPath>
					<g class="st89">
						<path class="st8" d="M71.99,65.05l-3.19-1.74c1-4.97,1.52-10.71,1.53-17.05c0.01-4.65-0.27-8.46-0.84-11.34
							c-0.52-2.51-1.2-3.98-2.06-4.45l3.19,1.74c0.86,0.47,1.54,1.94,2.06,4.45c0.56,2.88,0.84,6.68,0.84,11.34
							C73.5,54.34,72.99,60.07,71.99,65.05"/>
					</g>
				</g>
				<g class="st0">
					<defs>
						<path id="SVGID_135_" class="st0" d="M77.21,25.48l3.19,1.74c1.54,0.84,2.82,2.73,3.84,5.66c1.22,3.69,1.83,8.48,1.82,14.22
							c-0.01,6.68-1,13.5-2.95,20.28l-3.19-1.74c1.95-6.77,2.94-13.59,2.95-20.28c0.01-5.74-0.6-10.53-1.82-14.22
							C80.03,28.22,78.75,26.32,77.21,25.48z"/>
					</defs>
					<clipPath id="SVGID_136_">
						<use xlink:href="#SVGID_135_"  style="overflow:visible;"/>
					</clipPath>
					<g class="st90">
						<path class="st29" d="M83.1,67.38l-3.19-1.74c1.95-6.77,2.94-13.59,2.95-20.28c0.01-5.74-0.6-10.53-1.82-14.22
							c-1.01-2.93-2.3-4.83-3.84-5.66l3.19,1.74c1.54,0.84,2.82,2.73,3.84,5.66c1.22,3.69,1.83,8.48,1.82,14.22
							C86.04,53.79,85.05,60.61,83.1,67.38"/>
					</g>
				</g>
				<g class="st0">
					<defs>
						<path id="SVGID_137_" class="st0" d="M69.94,37.91c1.06,0.58,2.13,1.16,3.19,1.74c0.09,0.81,0.16,1.66,0.22,2.57
							c-1.06-0.58-2.13-1.16-3.19-1.74C70.1,39.57,70.03,38.72,69.94,37.91z"/>
					</defs>
					<clipPath id="SVGID_138_">
						<use xlink:href="#SVGID_137_"  style="overflow:visible;"/>
					</clipPath>
					<g class="st91">
						<path class="st8" d="M71.99,65.05l-3.19-1.74c1-4.97,1.52-10.71,1.53-17.05c0.01-4.65-0.27-8.46-0.84-11.34
							c-0.52-2.51-1.2-3.98-2.06-4.45l3.19,1.74c0.86,0.47,1.54,1.94,2.06,4.45c0.56,2.88,0.84,6.68,0.84,11.34
							C73.5,54.34,72.99,60.07,71.99,65.05"/>
					</g>
				</g>
				<g class="st0">
					<defs>
						<path id="SVGID_139_" class="st0" d="M75.58,25c0.57,0.04,1.11,0.2,1.63,0.48l3.19,1.74c-0.52-0.28-1.06-0.44-1.63-0.48
							C77.71,26.16,76.64,25.58,75.58,25z"/>
					</defs>
					<clipPath id="SVGID_140_">
						<use xlink:href="#SVGID_139_"  style="overflow:visible;"/>
					</clipPath>
					<g class="st92">
						<path class="st17" d="M62.43,27.08l-3.19-1.74c1.36-0.63,2.79-1.06,4.25-1.26c1.64-0.23,3.69-0.18,6.1,0.15
							c3.55,0.49,5.56,0.75,5.99,0.77c0.24,0.02,0.47,0.06,0.7,0.12l3.19,1.74c-0.23-0.06-0.46-0.1-0.7-0.12
							c-0.43-0.03-2.44-0.29-5.99-0.77c-2.41-0.33-4.46-0.38-6.1-0.15C65.22,26.02,63.79,26.45,62.43,27.08"/>
						<path class="st16" d="M79.47,26.85l-3.19-1.74c0.26,0.07,0.52,0.16,0.77,0.29l3.19,1.74C79.99,27.02,79.74,26.92,79.47,26.85"
							/>
						<path class="st10" d="M80.24,27.14l-3.19-1.74c0.05,0.03,0.11,0.05,0.16,0.08l3.19,1.74C80.35,27.19,80.29,27.16,80.24,27.14"
							/>
					</g>
				</g>
				<g class="st0">
					<defs>
						<path id="SVGID_141_" class="st0" d="M69.91,37.66c-0.12-0.99-0.26-1.9-0.42-2.74c1.06,0.58,2.13,1.16,3.19,1.74
							c0.16,0.84,0.3,1.75,0.42,2.74C72.04,38.82,70.97,38.24,69.91,37.66z"/>
					</defs>
					<clipPath id="SVGID_142_">
						<use xlink:href="#SVGID_141_"  style="overflow:visible;"/>
					</clipPath>
					<g class="st93">
						<path class="st8" d="M71.99,65.05l-3.19-1.74c1-4.97,1.52-10.71,1.53-17.05c0.01-4.65-0.27-8.46-0.84-11.34
							c-0.52-2.51-1.2-3.98-2.06-4.45l3.19,1.74c0.86,0.47,1.54,1.94,2.06,4.45c0.56,2.88,0.84,6.68,0.84,11.34
							C73.5,54.34,72.99,60.07,71.99,65.05"/>
					</g>
				</g>
				<g class="st0">
					<defs>
						<path id="SVGID_143_" class="st0" d="M69.49,34.92c-0.06-0.31-0.13-0.6-0.2-0.88c0.53,0.29,1.06,0.58,1.6,0.87
							c0.53,0.29,1.06,0.58,1.6,0.87c0.07,0.28,0.14,0.57,0.2,0.88C71.62,36.08,70.55,35.5,69.49,34.92z"/>
					</defs>
					<clipPath id="SVGID_144_">
						<use xlink:href="#SVGID_143_"  style="overflow:visible;"/>
					</clipPath>
					<g class="st94">
						<path class="st8" d="M71.99,65.05l-3.19-1.74c1-4.97,1.52-10.71,1.53-17.05c0.01-4.65-0.27-8.46-0.84-11.34
							c-0.52-2.51-1.2-3.98-2.06-4.45l3.19,1.74c0.86,0.47,1.54,1.94,2.06,4.45c0.56,2.88,0.84,6.68,0.84,11.34
							C73.5,54.34,72.99,60.07,71.99,65.05"/>
					</g>
				</g>
				<g class="st0">
					<defs>
						<path id="SVGID_145_" class="st0" d="M69.29,34.04c-0.01-0.02-0.01-0.05-0.02-0.07c1.06,0.58,2.13,1.16,3.19,1.74
							c0.01,0.02,0.01,0.04,0.02,0.07C71.42,35.2,70.35,34.62,69.29,34.04z"/>
					</defs>
					<clipPath id="SVGID_146_">
						<use xlink:href="#SVGID_145_"  style="overflow:visible;"/>
					</clipPath>
					<g class="st95">
						<path class="st8" d="M71.99,65.05l-3.19-1.74c1-4.97,1.52-10.71,1.53-17.05c0.01-4.65-0.27-8.46-0.84-11.34
							c-0.52-2.51-1.2-3.98-2.06-4.45l3.19,1.74c0.86,0.47,1.54,1.94,2.06,4.45c0.56,2.88,0.84,6.68,0.84,11.34
							C73.5,54.34,72.99,60.07,71.99,65.05"/>
					</g>
				</g>
				<g class="st0">
					<defs>
						<path id="SVGID_147_" class="st0" d="M69.27,33.97c-0.03-0.11-0.06-0.22-0.09-0.33c1.06,0.58,2.13,1.16,3.19,1.74
							c0.03,0.11,0.06,0.22,0.09,0.33C71.4,35.13,70.34,34.55,69.27,33.97z"/>
					</defs>
					<clipPath id="SVGID_148_">
						<use xlink:href="#SVGID_147_"  style="overflow:visible;"/>
					</clipPath>
					<g class="st96">
						<path class="st8" d="M71.99,65.05l-3.19-1.74c1-4.97,1.52-10.71,1.53-17.05c0.01-4.65-0.27-8.46-0.84-11.34
							c-0.52-2.51-1.2-3.98-2.06-4.45l3.19,1.74c0.86,0.47,1.54,1.94,2.06,4.45c0.56,2.88,0.84,6.68,0.84,11.34
							C73.5,54.34,72.99,60.07,71.99,65.05"/>
					</g>
				</g>
				<g class="st0">
					<defs>
						<path id="SVGID_149_" class="st0" d="M69.18,33.64c1.06,0.58,2.13,1.16,3.19,1.74c0,0,0,0,0,0.01
							C71.31,34.8,70.25,34.23,69.18,33.64C69.19,33.65,69.18,33.64,69.18,33.64z"/>
					</defs>
					<clipPath id="SVGID_150_">
						<use xlink:href="#SVGID_149_"  style="overflow:visible;"/>
					</clipPath>
					<g class="st97">
						<path class="st8" d="M71.99,65.05l-3.19-1.74c1-4.97,1.52-10.71,1.53-17.05c0.01-4.65-0.27-8.46-0.84-11.34
							c-0.52-2.51-1.2-3.98-2.06-4.45l3.19,1.74c0.86,0.47,1.54,1.94,2.06,4.45c0.56,2.88,0.84,6.68,0.84,11.34
							C73.5,54.34,72.99,60.07,71.99,65.05"/>
					</g>
				</g>
				<g class="st0">
					<defs>
						<path id="SVGID_151_" class="st0" d="M69.18,33.64c-0.12-0.43-0.24-0.82-0.37-1.17c1.06,0.58,2.13,1.16,3.19,1.74
							c0.13,0.35,0.26,0.74,0.37,1.17C71.31,34.8,70.25,34.22,69.18,33.64z"/>
					</defs>
					<clipPath id="SVGID_152_">
						<use xlink:href="#SVGID_151_"  style="overflow:visible;"/>
					</clipPath>
					<g class="st98">
						<path class="st8" d="M71.99,65.05l-3.19-1.74c1-4.97,1.52-10.71,1.53-17.05c0.01-4.65-0.27-8.46-0.84-11.34
							c-0.52-2.51-1.2-3.98-2.06-4.45l3.19,1.74c0.86,0.47,1.54,1.94,2.06,4.45c0.56,2.88,0.84,6.68,0.84,11.34
							C73.5,54.34,72.99,60.07,71.99,65.05"/>
					</g>
				</g>
				<g class="st0">
					<defs>
						<path id="SVGID_153_" class="st0" d="M68.81,32.47c-0.4-1.05-0.85-1.71-1.38-2l3.19,1.74c0.53,0.29,0.98,0.95,1.38,2
							c-0.53-0.29-1.06-0.58-1.6-0.87c-0.13-0.07-0.29-0.16-0.42-0.23c-0.12-0.07-0.29-0.16-0.41-0.22
							c-0.12-0.06-0.28-0.15-0.4-0.21C69.07,32.61,68.89,32.57,68.81,32.47z"/>
					</defs>
					<clipPath id="SVGID_154_">
						<use xlink:href="#SVGID_153_"  style="overflow:visible;"/>
					</clipPath>
					<g class="st99">
						<path class="st8" d="M71.99,65.05l-3.19-1.74c1-4.97,1.52-10.71,1.53-17.05c0.01-4.65-0.27-8.46-0.84-11.34
							c-0.52-2.51-1.2-3.98-2.06-4.45l3.19,1.74c0.86,0.47,1.54,1.94,2.06,4.45c0.56,2.88,0.84,6.68,0.84,11.34
							C73.5,54.34,72.99,60.07,71.99,65.05"/>
					</g>
				</g>
				<g class="st0">
					<defs>
						<path id="SVGID_155_" class="st0" d="M67.31,30.7l3.19,1.74c0.8,0.44,1.46,1.88,1.97,4.31c0.56,2.85,0.84,6.65,0.83,11.28
							c-0.01,6.33-0.52,12.04-1.52,16.99l-3.19-1.74c1-4.95,1.51-10.66,1.52-16.99c0.01-4.63-0.27-8.43-0.83-11.28
							C68.77,32.57,68.11,31.13,67.31,30.7z"/>
					</defs>
					<clipPath id="SVGID_156_">
						<use xlink:href="#SVGID_155_"  style="overflow:visible;"/>
					</clipPath>
					<g class="st100">
						<path class="st29" d="M71.77,65.02l-3.19-1.74c1-4.95,1.51-10.66,1.52-16.99c0.01-4.63-0.27-8.43-0.83-11.28
							c-0.5-2.43-1.17-3.87-1.97-4.31l3.19,1.74c0.8,0.44,1.46,1.88,1.97,4.31c0.56,2.85,0.84,6.65,0.83,11.28
							C73.28,54.36,72.77,60.07,71.77,65.02"/>
					</g>
				</g>
				<g class="st0">
					<defs>
						<path id="SVGID_157_" class="st0" d="M67.43,30.47l3.19,1.74c-0.26-0.14-0.53-0.19-0.82-0.15l-3.19-1.74
							C66.9,30.28,67.17,30.33,67.43,30.47z"/>
					</defs>
					<clipPath id="SVGID_158_">
						<use xlink:href="#SVGID_157_"  style="overflow:visible;"/>
					</clipPath>
					<g class="st101">
						<path class="st32" d="M69.8,32.06l-3.19-1.74c0.18-0.02,0.35-0.02,0.51,0.03l3.19,1.74C70.15,32.04,69.98,32.04,69.8,32.06"/>
						<path class="st31" d="M70.31,32.09l-3.19-1.74c0.09,0.02,0.17,0.05,0.26,0.1l3.19,1.74C70.48,32.14,70.4,32.11,70.31,32.09"/>
						<path class="st19" d="M70.57,32.18l-3.19-1.74c0.02,0.01,0.04,0.02,0.05,0.03l3.19,1.74C70.6,32.2,70.58,32.19,70.57,32.18"/>
					</g>
				</g>
				<g class="st0">
					<defs>
						<path id="SVGID_159_" class="st0" d="M69.59,24.23c3.55,0.49,5.56,0.75,5.99,0.77c1.06,0.58,2.13,1.16,3.19,1.74
							c-0.43-0.03-2.44-0.29-5.99-0.77C71.72,25.38,70.65,24.8,69.59,24.23z"/>
					</defs>
					<clipPath id="SVGID_160_">
						<use xlink:href="#SVGID_159_"  style="overflow:visible;"/>
					</clipPath>
					<g class="st102">
						<path class="st17" d="M62.43,27.08l-3.19-1.74c1.36-0.63,2.79-1.06,4.25-1.26c1.64-0.23,3.69-0.18,6.1,0.15
							c3.55,0.49,5.56,0.75,5.99,0.77c0.24,0.02,0.47,0.06,0.7,0.12l3.19,1.74c-0.23-0.06-0.46-0.1-0.7-0.12
							c-0.43-0.03-2.44-0.29-5.99-0.77c-2.41-0.33-4.46-0.38-6.1-0.15C65.22,26.02,63.79,26.45,62.43,27.08"/>
					</g>
				</g>
				<g>
					<path class="st67" d="M69.8,32.06c1.26-0.18,2.2,1.33,2.88,4.6c0.56,2.88,0.84,6.68,0.84,11.34
						c-0.01,6.35-0.53,12.08-1.53,17.05c-1.23,5.76-2.75,8.68-4.69,8.95c-1.03,0.14-2.01-2.08-3.02-6.79
						c-0.98-4.6-1.48-9.01-1.47-13.13c0.01-5.14,0.52-9.81,1.52-13.9C65.64,35.12,67.48,32.39,69.8,32.06z M71.77,65.02
						c1-4.95,1.51-10.66,1.52-16.99c0.01-4.63-0.27-8.43-0.83-11.28c-0.64-3.11-1.55-4.6-2.67-4.44c-2.21,0.31-3.98,2.97-5.25,7.91
						c-1,4.06-1.51,8.71-1.52,13.83c-0.01,4.1,0.48,8.5,1.47,13.08c1.21,5.64,2.2,6.73,2.81,6.64
						C69.09,73.51,70.59,70.57,71.77,65.02"/>
				</g>
				<g class="st0">
					<defs>
						<path id="SVGID_161_" class="st0" d="M66.85,73.91l-3.19-1.74c-0.87-0.47-1.71-2.68-2.57-6.7c-0.98-4.6-1.48-9.01-1.47-13.13
							c0.01-5.14,0.52-9.81,1.52-13.9c1.31-5.06,3.15-7.79,5.47-8.12l3.19,1.74c-2.32,0.33-4.16,3.06-5.47,8.12
							c-1,4.08-1.51,8.75-1.52,13.9c-0.01,4.12,0.49,8.53,1.47,13.13C65.15,71.23,65.99,73.44,66.85,73.91z"/>
					</defs>
					<clipPath id="SVGID_162_">
						<use xlink:href="#SVGID_161_"  style="overflow:visible;"/>
					</clipPath>
					<g class="st103">
						<path class="st29" d="M66.85,73.91l-3.19-1.74c-0.87-0.47-1.71-2.68-2.57-6.7c-0.98-4.6-1.48-9.01-1.47-13.13
							c0.01-5.14,0.52-9.81,1.52-13.9c0.26-1.01,0.54-1.93,0.85-2.75l3.19,1.74c-0.3,0.82-0.59,1.74-0.85,2.75
							c-1,4.08-1.51,8.75-1.52,13.9c-0.01,4.12,0.49,8.53,1.47,13.13C65.15,71.23,65.99,73.44,66.85,73.91"/>
						<path class="st28" d="M65.18,37.42l-3.19-1.74c0.3-0.81,0.62-1.53,0.96-2.16l3.19,1.74C65.79,35.89,65.47,36.61,65.18,37.42"
							/>
						<path class="st27" d="M66.13,35.26l-3.19-1.74c0.21-0.38,0.42-0.74,0.64-1.05l3.19,1.74C66.55,34.53,66.34,34.88,66.13,35.26"
							/>
						<path class="st26" d="M66.77,34.21l-3.19-1.74c0.17-0.24,0.34-0.47,0.52-0.67l3.19,1.74C67.12,33.74,66.94,33.97,66.77,34.21"
							/>
						<path class="st25" d="M67.3,33.54l-3.19-1.74c0.15-0.17,0.31-0.33,0.47-0.48l3.19,1.74C67.61,33.21,67.45,33.37,67.3,33.54"/>
						<path class="st19" d="M67.77,33.06l-3.19-1.74c0.16-0.14,0.32-0.27,0.48-0.38l3.19,1.74C68.09,32.79,67.93,32.92,67.77,33.06"
							/>
						<path class="st31" d="M68.25,32.68l-3.19-1.74c0.18-0.13,0.37-0.24,0.56-0.33l3.19,1.74C68.62,32.45,68.43,32.56,68.25,32.68"
							/>
						<path class="st32" d="M68.81,32.36l-3.19-1.74c0.32-0.15,0.65-0.25,0.99-0.3l3.19,1.74C69.46,32.11,69.13,32.21,68.81,32.36"
							/>
					</g>
				</g>
				<g class="st0">
					<defs>
						<path id="SVGID_163_" class="st0" d="M63.49,24.08c1.64-0.23,3.69-0.18,6.1,0.15c1.06,0.58,2.13,1.16,3.19,1.74
							c-2.41-0.33-4.46-0.38-6.1-0.15C65.62,25.24,64.55,24.66,63.49,24.08z"/>
					</defs>
					<clipPath id="SVGID_164_">
						<use xlink:href="#SVGID_163_"  style="overflow:visible;"/>
					</clipPath>
					<g class="st104">
						<path class="st17" d="M62.43,27.08l-3.19-1.74c1.36-0.63,2.79-1.06,4.25-1.26c1.64-0.23,3.69-0.18,6.1,0.15
							c3.55,0.49,5.56,0.75,5.99,0.77c0.24,0.02,0.47,0.06,0.7,0.12l3.19,1.74c-0.23-0.06-0.46-0.1-0.7-0.12
							c-0.43-0.03-2.44-0.29-5.99-0.77c-2.41-0.33-4.46-0.38-6.1-0.15C65.22,26.02,63.79,26.45,62.43,27.08"/>
					</g>
				</g>
				<g class="st0">
					<defs>
						<path id="SVGID_165_" class="st0" d="M59.24,25.34c1.36-0.63,2.79-1.06,4.25-1.26c1.06,0.58,2.13,1.16,3.19,1.74
							c-1.46,0.2-2.88,0.63-4.25,1.26C61.47,26.56,60.2,25.86,59.24,25.34z"/>
					</defs>
					<clipPath id="SVGID_166_">
						<use xlink:href="#SVGID_165_"  style="overflow:visible;"/>
					</clipPath>
					<g class="st105">
						<path class="st17" d="M62.43,27.08l-3.19-1.74c1.36-0.63,2.79-1.06,4.25-1.26c1.64-0.23,3.69-0.18,6.1,0.15
							c3.55,0.49,5.56,0.75,5.99,0.77c0.24,0.02,0.47,0.06,0.7,0.12l3.19,1.74c-0.23-0.06-0.46-0.1-0.7-0.12
							c-0.43-0.03-2.44-0.29-5.99-0.77c-2.41-0.33-4.46-0.38-6.1-0.15C65.22,26.02,63.79,26.45,62.43,27.08"/>
					</g>
				</g>
				<g class="st0">
					<defs>
						<path id="SVGID_167_" class="st0" d="M77.33,25.27L80.52,27c-0.54-0.29-1.11-0.46-1.71-0.51c-0.42-0.04-2.43-0.29-5.97-0.78
							c-2.43-0.33-4.5-0.38-6.16-0.15c-1.48,0.21-2.93,0.64-4.32,1.29l-3.19-1.74c1.39-0.65,2.84-1.08,4.32-1.29
							c1.66-0.23,3.73-0.19,6.16,0.15c3.54,0.49,5.55,0.74,5.97,0.78C76.22,24.8,76.79,24.97,77.33,25.27z"/>
					</defs>
					<clipPath id="SVGID_168_">
						<use xlink:href="#SVGID_167_"  style="overflow:visible;"/>
					</clipPath>
					<g class="st106">
						<path class="st32" d="M62.36,26.86l-3.19-1.74c1.39-0.65,2.84-1.08,4.32-1.29c1.66-0.23,3.73-0.19,6.16,0.15
							c3.54,0.49,5.55,0.74,5.97,0.78c0.25,0.02,0.5,0.06,0.74,0.12l3.19,1.74c-0.24-0.06-0.49-0.1-0.74-0.12
							c-0.42-0.04-2.43-0.29-5.97-0.78c-2.43-0.33-4.5-0.38-6.16-0.15C65.2,25.78,63.75,26.21,62.36,26.86"/>
						<path class="st31" d="M79.55,26.62l-3.19-1.74c0.27,0.07,0.54,0.17,0.8,0.3l3.19,1.74C80.1,26.79,79.83,26.69,79.55,26.62"/>
						<path class="st19" d="M80.36,26.92l-3.19-1.74c0.06,0.03,0.11,0.06,0.16,0.09L80.52,27C80.47,26.97,80.41,26.94,80.36,26.92"
							/>
					</g>
				</g>
				<g class="st0">
					<defs>
						<path id="SVGID_169_" class="st0" d="M59.57,26.88l-3.19-1.74c0.18-0.07,0.37-0.11,0.54-0.14c0.31-0.04,0.7,0.03,1.16,0.23
							c0.37,0.16,0.67,0.22,0.92,0.19c0.09-0.01,0.16-0.04,0.24-0.07l3.19,1.74c-0.07,0.04-0.15,0.06-0.24,0.07
							c-0.24,0.03-0.54-0.03-0.92-0.19c-0.46-0.2-0.85-0.27-1.16-0.23C59.94,26.76,59.76,26.81,59.57,26.88z"/>
					</defs>
					<clipPath id="SVGID_170_">
						<use xlink:href="#SVGID_169_"  style="overflow:visible;"/>
					</clipPath>
					<g class="st107">
						<path class="st17" d="M59.57,26.88l-3.19-1.74c0.18-0.07,0.37-0.11,0.54-0.14c0.2-0.03,0.42-0.01,0.68,0.06l3.19,1.74
							c-0.25-0.07-0.48-0.09-0.68-0.06C59.94,26.76,59.76,26.81,59.57,26.88"/>
						<path class="st16" d="M60.8,26.8l-3.19-1.74c0.15,0.04,0.31,0.1,0.48,0.17c0.15,0.06,0.29,0.11,0.41,0.14l3.19,1.74
							c-0.13-0.03-0.26-0.08-0.41-0.14C61.11,26.89,60.95,26.84,60.8,26.8"/>
						<path class="st17" d="M61.69,27.11l-3.19-1.74c0.19,0.05,0.36,0.06,0.5,0.04c0.08-0.01,0.15-0.03,0.21-0.06l3.19,1.74
							c-0.06,0.03-0.14,0.05-0.21,0.06C62.05,27.17,61.88,27.16,61.69,27.11"/>
						<path class="st16" d="M62.41,27.09l-3.19-1.74c0.01,0,0.02-0.01,0.02-0.01l3.19,1.74C62.42,27.08,62.42,27.09,62.41,27.09"/>
					</g>
				</g>
				<g class="st0">
					<defs>
						<path id="SVGID_171_" class="st0" d="M59.52,26.65l-3.19-1.74c0.21-0.07,0.41-0.13,0.6-0.15c0.34-0.05,0.78,0.03,1.26,0.24
							c0.34,0.15,0.61,0.21,0.81,0.18c0.06-0.01,0.12-0.03,0.16-0.05l3.19,1.74c-0.05,0.02-0.1,0.04-0.16,0.05
							c-0.2,0.03-0.48-0.03-0.81-0.18c-0.49-0.21-0.92-0.29-1.26-0.24C59.93,26.52,59.73,26.58,59.52,26.65z"/>
					</defs>
					<clipPath id="SVGID_172_">
						<use xlink:href="#SVGID_171_"  style="overflow:visible;"/>
					</clipPath>
					<g class="st108">
						<path class="st32" d="M59.52,26.65l-3.19-1.74c0.21-0.07,0.41-0.13,0.6-0.15c0.22-0.03,0.48-0.01,0.76,0.06l3.19,1.74
							c-0.29-0.07-0.54-0.09-0.76-0.06C59.93,26.52,59.73,26.58,59.52,26.65"/>
						<path class="st31" d="M60.88,26.56l-3.19-1.74c0.16,0.04,0.33,0.1,0.5,0.17c0.14,0.06,0.28,0.11,0.4,0.14l3.19,1.74
							c-0.12-0.03-0.25-0.08-0.4-0.14C61.21,26.66,61.04,26.6,60.88,26.56"/>
						<path class="st32" d="M61.78,26.88l-3.19-1.74c0.16,0.04,0.3,0.05,0.42,0.04c0.05-0.01,0.1-0.02,0.15-0.04l3.19,1.74
							c-0.04,0.02-0.09,0.03-0.15,0.04C62.08,26.93,61.94,26.92,61.78,26.88"/>
						<path class="st31" d="M62.34,26.87l-3.19-1.74c0.01,0,0.01-0.01,0.02-0.01l3.19,1.74C62.35,26.87,62.35,26.87,62.34,26.87"/>
					</g>
				</g>
				<g class="st0">
					<defs>
						<path id="SVGID_173_" class="st0" d="M57.13,80.51l-3.19-1.74c-1.86-1.01-3.43-3.79-4.69-8.28
							c-1.41-5.01-2.12-10.94-2.11-17.62c0.01-6.64,0.77-12.48,2.24-17.35c1.6-5.45,3.96-8.95,6.99-10.39l3.19,1.74
							c-3.04,1.44-5.39,4.93-6.99,10.39c-1.47,4.87-2.23,10.71-2.24,17.35c-0.01,6.68,0.7,12.61,2.11,17.62
							C53.7,76.73,55.27,79.51,57.13,80.51z"/>
					</defs>
					<clipPath id="SVGID_174_">
						<use xlink:href="#SVGID_173_"  style="overflow:visible;"/>
					</clipPath>
					<g class="st109">
						<path class="st8" d="M57.13,80.51l-3.19-1.74c-1.86-1.01-3.43-3.79-4.69-8.28c-1.41-5.01-2.12-10.94-2.11-17.62
							c0.01-6.64,0.77-12.48,2.24-17.35c0.22-0.74,0.45-1.45,0.7-2.12l3.19,1.74c-0.25,0.67-0.48,1.38-0.7,2.12
							c-1.47,4.87-2.23,10.71-2.24,17.35c-0.01,6.68,0.7,12.61,2.11,17.62C53.7,76.73,55.27,79.51,57.13,80.51"/>
						<path class="st2" d="M53.28,35.14l-3.19-1.74c0.42-1.14,0.88-2.18,1.38-3.11l3.19,1.74C54.16,32.96,53.7,34,53.28,35.14"/>
						<path class="st6" d="M54.66,32.03l-3.19-1.74c0.33-0.61,0.68-1.18,1.04-1.7l3.19,1.74C55.33,30.85,54.99,31.42,54.66,32.03"/>
						<path class="st5" d="M55.7,30.33l-3.19-1.74c0.29-0.42,0.6-0.8,0.91-1.16l3.19,1.74C56.29,29.53,55.99,29.92,55.7,30.33"/>
						<path class="st11" d="M56.61,29.17l-3.19-1.74c0.28-0.32,0.57-0.62,0.87-0.89l3.19,1.74C57.18,28.56,56.89,28.85,56.61,29.17"
							/>
						<path class="st10" d="M57.48,28.29l-3.19-1.74c0.3-0.27,0.61-0.52,0.93-0.74l3.19,1.74C58.1,27.77,57.78,28.01,57.48,28.29"/>
						<path class="st16" d="M58.42,27.55l-3.19-1.74c0.37-0.26,0.76-0.48,1.16-0.67l3.19,1.74C59.18,27.06,58.79,27.29,58.42,27.55"
							/>
					</g>
				</g>
				<g>
					<path class="st67" d="M84.44,32.78c1.23,3.72,1.84,8.53,1.83,14.3c-0.01,6.71-1.01,13.56-2.96,20.36
						c-2.83,9.78-7,15.12-12.39,15.87c-0.87,0.12-1.93,0.06-3.17-0.17c-1.99-0.43-3.09-0.66-3.27-0.68
						c-1.28-0.3-3.41-0.76-6.36-1.33c-2.4-0.43-4.38-3.39-5.9-8.79c-1.41-5.04-2.12-10.99-2.11-17.69
						c0.01-6.67,0.77-12.53,2.24-17.43c1.64-5.53,4.04-9.08,7.16-10.57c0.21-0.07,0.41-0.13,0.6-0.15c0.34-0.05,0.78,0.03,1.26,0.24
						c0.34,0.15,0.61,0.21,0.81,0.18c0.06-0.01,0.12-0.03,0.16-0.05c1.39-0.65,2.84-1.08,4.32-1.29c1.66-0.23,3.73-0.19,6.16,0.15
						c3.54,0.49,5.55,0.74,5.97,0.78C81.17,26.67,83.07,28.78,84.44,32.78z M83.1,67.38c1.95-6.77,2.94-13.59,2.95-20.28
						c0.01-5.74-0.6-10.53-1.82-14.22c-1.35-3.92-3.19-5.98-5.47-6.15c-0.43-0.03-2.44-0.29-5.99-0.77
						c-2.41-0.33-4.46-0.38-6.1-0.15c-1.46,0.2-2.88,0.63-4.25,1.26c-0.07,0.04-0.15,0.06-0.24,0.07c-0.24,0.03-0.54-0.03-0.92-0.19
						c-0.46-0.2-0.85-0.27-1.16-0.23c-0.18,0.02-0.36,0.07-0.54,0.14c-3.04,1.44-5.39,4.93-6.99,10.39
						c-1.47,4.87-2.23,10.71-2.24,17.35c-0.01,6.68,0.7,12.61,2.11,17.62c1.49,5.32,3.43,8.24,5.75,8.66
						c2.95,0.57,5.08,1.01,6.35,1.33c0.18,0.01,1.26,0.24,3.27,0.68c1.22,0.23,2.27,0.28,3.11,0.16
						C76.21,82.32,80.31,77.04,83.1,67.38"/>
				</g>
				<g>
					<path class="st68" d="M84.24,32.88c1.22,3.69,1.83,8.48,1.82,14.22c-0.01,6.68-1,13.5-2.95,20.28
						c-2.79,9.66-6.89,14.94-12.18,15.68c-0.84,0.12-1.89,0.07-3.11-0.16c-2.02-0.44-3.09-0.67-3.27-0.68
						c-1.26-0.31-3.4-0.76-6.35-1.33c-2.32-0.42-4.26-3.33-5.75-8.66c-1.41-5.01-2.12-10.94-2.11-17.62
						c0.01-6.64,0.77-12.48,2.24-17.35c1.6-5.45,3.96-8.95,6.99-10.39c0.18-0.07,0.37-0.11,0.54-0.14c0.31-0.04,0.7,0.03,1.16,0.23
						c0.37,0.16,0.67,0.22,0.92,0.19c0.09-0.01,0.16-0.04,0.24-0.07c1.36-0.63,2.79-1.06,4.25-1.26c1.64-0.23,3.69-0.18,6.1,0.15
						c3.55,0.49,5.56,0.75,5.99,0.77C81.04,26.9,82.88,28.97,84.24,32.88z M71.99,65.05c1-4.97,1.52-10.71,1.53-17.05
						c0.01-4.65-0.27-8.46-0.84-11.34c-0.68-3.27-1.62-4.78-2.88-4.6c-2.32,0.33-4.16,3.06-5.47,8.12c-1,4.08-1.51,8.75-1.52,13.9
						c-0.01,4.12,0.49,8.53,1.47,13.13c1.02,4.71,2,6.94,3.02,6.79C69.23,73.72,70.76,70.8,71.99,65.05"/>
				</g>
				<g class="st0">
					<defs>
						<path id="SVGID_175_" class="st0" d="M57.01,80.73l-3.19-1.74c-1.91-1.04-3.51-3.85-4.79-8.39
							c-1.41-5.04-2.12-10.99-2.11-17.69c0.01-6.67,0.77-12.53,2.24-17.43c1.64-5.53,4.04-9.08,7.16-10.57l3.19,1.74
							c-3.12,1.48-5.52,5.04-7.16,10.57c-1.47,4.9-2.23,10.76-2.24,17.43c-0.01,6.7,0.7,12.65,2.11,17.69
							C53.5,76.88,55.11,79.69,57.01,80.73z"/>
					</defs>
					<clipPath id="SVGID_176_">
						<use xlink:href="#SVGID_175_"  style="overflow:visible;"/>
					</clipPath>
					<g class="st110">
						<path class="st29" d="M57.01,80.73l-3.19-1.74c-1.91-1.04-3.51-3.85-4.79-8.39c-1.41-5.04-2.12-10.99-2.11-17.69
							c0.01-6.67,0.77-12.53,2.24-17.43c0.22-0.73,0.45-1.43,0.69-2.09l3.19,1.74c-0.24,0.66-0.47,1.36-0.69,2.09
							c-1.47,4.9-2.23,10.76-2.24,17.43c-0.01,6.7,0.7,12.65,2.11,17.69C53.5,76.88,55.11,79.69,57.01,80.73"/>
						<path class="st28" d="M53.05,35.12l-3.19-1.74c0.43-1.17,0.9-2.22,1.41-3.17l3.19,1.74C53.95,32.9,53.48,33.96,53.05,35.12"/>
						<path class="st27" d="M54.46,31.95l-3.19-1.74c0.34-0.63,0.69-1.21,1.07-1.74l3.19,1.74C55.15,30.74,54.8,31.32,54.46,31.95"
							/>
						<path class="st26" d="M55.53,30.21l-3.19-1.74c0.3-0.43,0.61-0.83,0.93-1.19l3.19,1.74C56.14,29.39,55.83,29.78,55.53,30.21"
							/>
						<path class="st25" d="M56.46,29.02l-3.19-1.74c0.29-0.33,0.59-0.63,0.9-0.91l3.19,1.74C57.05,28.39,56.75,28.69,56.46,29.02"
							/>
						<path class="st19" d="M57.36,28.11l-3.19-1.74c0.31-0.28,0.64-0.54,0.97-0.77l3.19,1.74C58,27.57,57.67,27.83,57.36,28.11"/>
						<path class="st31" d="M58.33,27.34l-3.19-1.74c0.38-0.27,0.78-0.5,1.19-0.69l3.19,1.74C59.11,26.84,58.71,27.08,58.33,27.34"
							/>
					</g>
				</g>
			</g>
		</g>
	</g>
</g>
</svg>
