<svg xmlns="http://www.w3.org/2000/svg" xmlns:xlink="http://www.w3.org/1999/xlink" width="227" height="100" viewBox="0 0 227 100">
  <defs>
    <linearGradient id="linear-gradient" x1="0.5" x2="0.5" y2="1" gradientUnits="objectBoundingBox">
      <stop offset="0" stop-color="#10b9eb"/>
      <stop offset="1" stop-color="#13d9e2"/>
    </linearGradient>
    <filter id="Rectangle_91" x="0" y="0" width="227" height="100" filterUnits="userSpaceOnUse">
      <feOffset dy="3" input="SourceAlpha"/>
      <feGaussianBlur stdDeviation="3" result="blur"/>
      <feFlood/>
      <feComposite operator="in" in2="blur"/>
      <feComposite in="SourceGraphic"/>
    </filter>
  </defs>
  <g id="Group_900" data-name="Group 900" transform="translate(-5630 1133)">
    <path id="Path_1386" data-name="Path 1386" d="M443.166,2.362a6.062,6.062,0,0,1,6.055,6.055V27.459a6.061,6.061,0,0,1-6.055,6.054H424.123a6.061,6.061,0,0,1-6.055-6.054V8.416a6.062,6.062,0,0,1,6.055-6.055h19.043m0-1.736H424.123a7.79,7.79,0,0,0-7.79,7.79V27.459a7.79,7.79,0,0,0,7.79,7.79h19.043a7.79,7.79,0,0,0,7.79-7.79V8.416a7.79,7.79,0,0,0-7.79-7.79" transform="translate(5396.318 -1127.365)" fill="#e84c3d"/>
    <path id="Path_1387" data-name="Path 1387" d="M35.122,8.12V27.756a7.494,7.494,0,0,1-7.494,7.494H7.993A7.494,7.494,0,0,1,.5,27.756V8.12A7.494,7.494,0,0,1,7.993.626H27.629A7.494,7.494,0,0,1,35.122,8.12" transform="translate(5639.035 -1127.365)" fill="url(#linear-gradient)"/>
    <path id="Path_1388" data-name="Path 1388" d="M139.081,8.12V27.756a7.494,7.494,0,0,1-7.494,7.494H111.952a7.494,7.494,0,0,1-7.494-7.494V8.12A7.494,7.494,0,0,1,111.952.626h19.636a7.494,7.494,0,0,1,7.494,7.494" transform="translate(5578.355 -1127.365)" fill="url(#linear-gradient)"/>
    <path id="Path_1389" data-name="Path 1389" d="M243.039,8.188V27.767a7.493,7.493,0,0,1-7.494,7.494H215.91a7.494,7.494,0,0,1-7.494-7.494V8.188A7.494,7.494,0,0,1,215.91.694h19.636a7.494,7.494,0,0,1,7.494,7.494" transform="translate(5517.676 -1127.405)" fill="url(#linear-gradient)"/>
    <path id="Path_1390" data-name="Path 1390" d="M347,8.188V27.767A7.494,7.494,0,0,1,339.5,35.26H319.869a7.493,7.493,0,0,1-7.494-7.494V8.188A7.494,7.494,0,0,1,319.869.694H339.5A7.494,7.494,0,0,1,347,8.188" transform="translate(5456.997 -1127.405)" fill="url(#linear-gradient)"/>
    <path id="Path_1391" data-name="Path 1391" d="M40.551,128.747H33.017A1.146,1.146,0,0,1,31.87,127.6v-.037a1.147,1.147,0,0,1,1.147-1.147H50.7a1.147,1.147,0,0,1,1.147,1.147v.037a1.146,1.146,0,0,1-1.147,1.147H43.163v22.007a1.147,1.147,0,0,1-1.147,1.147H41.7a1.147,1.147,0,0,1-1.147-1.147Z" transform="translate(5620.724 -1200.788)" fill="#fff"/>
    <path id="Path_1392" data-name="Path 1392" d="M106.212,127.564v23.19a1.147,1.147,0,0,1-1.147,1.147h-.283a1.147,1.147,0,0,1-1.147-1.147V140.142H88.179v10.612a1.147,1.147,0,0,1-1.147,1.147h-.318a1.147,1.147,0,0,1-1.147-1.147v-23.19a1.147,1.147,0,0,1,1.147-1.147h.318a1.147,1.147,0,0,1,1.147,1.147v10.212h15.457V127.564a1.147,1.147,0,0,1,1.147-1.147h.283a1.147,1.147,0,0,1,1.147,1.147" transform="translate(5589.382 -1200.788)" fill="#fff"/>
    <path id="Path_1393" data-name="Path 1393" d="M162.811,150.717v.037a1.147,1.147,0,0,1-1.147,1.147H146.49a1.147,1.147,0,0,1-1.147-1.147v-23.19a1.146,1.146,0,0,1,1.147-1.147h14.646a1.147,1.147,0,0,1,1.147,1.147v.037a1.147,1.147,0,0,1-1.147,1.147H147.954v9.065h11.628a1.147,1.147,0,0,1,0,2.294H147.954v9.465h13.711a1.147,1.147,0,0,1,1.147,1.147" transform="translate(5554.491 -1200.788)" fill="#fff"/>
    <path id="Path_1394" data-name="Path 1394" d="M241.128,140.45a6.338,6.338,0,0,1,1.041,3.622,6.818,6.818,0,0,1-1.253,4.078,7.857,7.857,0,0,1-3.547,2.676,15.7,15.7,0,0,1-10.64,0,7.745,7.745,0,0,1-3.511-2.676,6.877,6.877,0,0,1-1.236-4.078,6.411,6.411,0,0,1,1.024-3.622,7.048,7.048,0,0,1,2.929-2.457,5.951,5.951,0,0,1-2.276-2.2,6.146,6.146,0,0,1-.794-3.149,6.272,6.272,0,0,1,1.147-3.749,7.351,7.351,0,0,1,3.229-2.476,13.721,13.721,0,0,1,9.634,0,7.475,7.475,0,0,1,3.246,2.476,6.207,6.207,0,0,1,1.165,3.749,5.95,5.95,0,0,1-.812,3.132,6.35,6.35,0,0,1-2.329,2.221,7.146,7.146,0,0,1,2.982,2.457m-5.064,6.5a3.784,3.784,0,0,0,0-6.007,6.644,6.644,0,0,0-4.023-1.092,6.483,6.483,0,0,0-3.988,1.092,3.537,3.537,0,0,0-1.447,2.985,3.574,3.574,0,0,0,1.447,3.022,6.483,6.483,0,0,0,3.988,1.092,6.644,6.644,0,0,0,4.023-1.092M228.635,130.2a3.388,3.388,0,0,0,0,5.261,5.445,5.445,0,0,0,3.406.965,5.585,5.585,0,0,0,3.458-.965,3.343,3.343,0,0,0-.017-5.261,5.683,5.683,0,0,0-3.44-.946,5.522,5.522,0,0,0-3.406.946" transform="translate(5509.757 -1200.277)" fill="#fff"/>
    <path id="Path_1395" data-name="Path 1395" d="M281.042,150.206a10.368,10.368,0,0,1-3.67-4.514,19.168,19.168,0,0,1,0-14.089,10.371,10.371,0,0,1,3.67-4.514,9.858,9.858,0,0,1,10.6,0,10.324,10.324,0,0,1,3.688,4.514,19.168,19.168,0,0,1,0,14.089,10.321,10.321,0,0,1-3.688,4.514,9.858,9.858,0,0,1-10.6,0m9.476-4.824q1.535-2.256,1.535-6.735t-1.535-6.734a4.97,4.97,0,0,0-8.329,0q-1.535,2.257-1.535,6.734t1.535,6.735a4.97,4.97,0,0,0,8.329,0" transform="translate(5478.21 -1200.277)" fill="#fff"/>
    <path id="Path_1396" data-name="Path 1396" d="M342.99,114h1.369a1.223,1.223,0,0,1,1.158,1.616L334.7,147.464a1.224,1.224,0,0,1-1.158.83h-1.37a1.223,1.223,0,0,1-1.158-1.617l10.815-31.847a1.222,1.222,0,0,1,1.158-.83" transform="translate(5446.154 -1193.54)" fill="#fff"/>
    <path id="Path_1397" data-name="Path 1397" d="M387.793,149.047v.682a1.661,1.661,0,0,1-1.661,1.661H371.245a1.661,1.661,0,0,1-1.662-1.661v-.808a1.66,1.66,0,0,1,.5-1.186l9.312-9.122a11.069,11.069,0,0,0,2.241-2.858,5.575,5.575,0,0,0,.582-2.42,3.317,3.317,0,0,0-1.164-2.731,5.33,5.33,0,0,0-3.423-.946,7.1,7.1,0,0,0-4.845,1.641,1.645,1.645,0,0,1-2.114.087l-.659-.522a1.663,1.663,0,0,1-.082-2.539,10.129,10.129,0,0,1,2.6-1.67,13.159,13.159,0,0,1,5.488-1.111,9.823,9.823,0,0,1,6.422,1.966,6.549,6.549,0,0,1,2.4,5.351,9.129,9.129,0,0,1-.847,3.9,15.131,15.131,0,0,1-3.247,4.15l-6.6,6.48h9.984a1.662,1.662,0,0,1,1.661,1.662" transform="translate(5423.723 -1200.277)" fill="#fff"/>
    <path id="Path_1398" data-name="Path 1398" d="M423.552,150.206a10.365,10.365,0,0,1-3.67-4.514,19.168,19.168,0,0,1,0-14.089,10.368,10.368,0,0,1,3.67-4.514,9.858,9.858,0,0,1,10.6,0,10.327,10.327,0,0,1,3.688,4.514,19.174,19.174,0,0,1,0,14.089,10.324,10.324,0,0,1-3.688,4.514,9.858,9.858,0,0,1-10.6,0m9.475-4.824q1.535-2.256,1.535-6.735t-1.535-6.734a4.97,4.97,0,0,0-8.328,0q-1.535,2.257-1.535,6.734t1.535,6.735a4.97,4.97,0,0,0,8.328,0" transform="translate(5395.029 -1200.277)" fill="#fff"/>
    <g transform="matrix(1, 0, 0, 1, 5630, -1133)" filter="url(#Rectangle_91)">
      <rect id="Rectangle_91-2" data-name="Rectangle 91" width="209" height="82" transform="translate(9 6)" fill="none"/>
    </g>
  </g>
</svg>
