<svg xmlns="http://www.w3.org/2000/svg" xmlns:xlink="http://www.w3.org/1999/xlink" width="210" height="210" viewBox="0 0 210 210">
  <defs>
    <filter id="Rectangle_91" x="13" y="72" width="185" height="84" filterUnits="userSpaceOnUse">
      <feOffset dy="3" input="SourceAlpha"/>
      <feGaussianBlur stdDeviation="3" result="blur"/>
      <feFlood/>
      <feComposite operator="in" in2="blur"/>
      <feComposite in="SourceGraphic"/>
    </filter>
    <linearGradient id="linear-gradient" x1="0.5" x2="0.5" y2="1" gradientUnits="objectBoundingBox">
      <stop offset="0" stop-color="#3124ff"/>
      <stop offset="1" stop-color="#00ffe2"/>
    </linearGradient>
    <clipPath id="clip-path">
      <g transform="matrix(1, 0, 0, 1, 0, 0)" filter="url(#Rectangle_91)">
        <rect id="Rectangle_91-2" data-name="Rectangle 91" width="167" height="66" transform="translate(0 0)" fill="none"/>
      </g>
    </clipPath>
    <linearGradient id="linear-gradient-2" x1="0.5" x2="0.5" y2="1" gradientUnits="objectBoundingBox">
      <stop offset="0" stop-color="#10b9eb"/>
      <stop offset="1" stop-color="#13d9e2"/>
    </linearGradient>
  </defs>
  <g id="Group_903" data-name="Group 903" transform="translate(-12709 1206)">
    <g id="Ellipse_970" data-name="Ellipse 970" transform="translate(12715 -1200)" stroke="#707070" stroke-width="1" opacity="0.35" fill="url(#linear-gradient)">
      <circle cx="99" cy="99" r="99" stroke="none"/>
      <circle cx="99" cy="99" r="98.5" fill="none"/>
    </g>
    <g id="LOGO" transform="translate(12731 -1128)">
      <g id="Group_283" data-name="Group 283" transform="translate(0 0)" clip-path="url(#clip-path)">
        <path id="Path_1386" data-name="Path 1386" d="M437.774,2.023A4.861,4.861,0,0,1,442.612,6.9V22.224a4.861,4.861,0,0,1-4.838,4.873H422.558a4.861,4.861,0,0,1-4.838-4.873V6.9a4.861,4.861,0,0,1,4.838-4.873h15.216m0-1.4H422.558a6.248,6.248,0,0,0-6.225,6.27V22.224a6.248,6.248,0,0,0,6.225,6.27h15.216A6.248,6.248,0,0,0,444,22.224V6.9a6.248,6.248,0,0,0-6.225-6.27" transform="translate(-277.578 -0.416)" fill="#e84c3d"/>
        <path id="Path_1387" data-name="Path 1387" d="M28.165,6.657v15.8a6.01,6.01,0,0,1-5.988,6.031H6.487A6.01,6.01,0,0,1,.5,22.462V6.657A6.01,6.01,0,0,1,6.487.626h15.69a6.01,6.01,0,0,1,5.988,6.031" transform="translate(-0.072 -0.416)" fill="url(#linear-gradient-2)"/>
        <path id="Path_1388" data-name="Path 1388" d="M132.124,6.657v15.8a6.01,6.01,0,0,1-5.988,6.031h-15.69a6.01,6.01,0,0,1-5.988-6.031V6.657A6.01,6.01,0,0,1,110.446.626h15.69a6.01,6.01,0,0,1,5.988,6.031" transform="translate(-69.449 -0.416)" fill="url(#linear-gradient-2)"/>
        <path id="Path_1389" data-name="Path 1389" d="M236.082,6.725V22.484a6.01,6.01,0,0,1-5.988,6.031H214.4a6.01,6.01,0,0,1-5.988-6.031V6.725A6.01,6.01,0,0,1,214.4.694h15.69a6.01,6.01,0,0,1,5.988,6.031" transform="translate(-138.825 -0.461)" fill="url(#linear-gradient-2)"/>
        <path id="Path_1390" data-name="Path 1390" d="M340.041,6.725V22.484a6.01,6.01,0,0,1-5.988,6.031h-15.69a6.01,6.01,0,0,1-5.988-6.031V6.725A6.01,6.01,0,0,1,318.363.694h15.69a6.01,6.01,0,0,1,5.988,6.031" transform="translate(-208.202 -0.461)" fill="url(#linear-gradient-2)"/>
        <path id="Path_1391" data-name="Path 1391" d="M38.807,128.292h-6.02a.919.919,0,0,1-.916-.923v-.029a.92.92,0,0,1,.916-.923H46.914a.92.92,0,0,1,.916.923v.029a.919.919,0,0,1-.916.923h-6.02v17.713a.919.919,0,0,1-.916.923h-.254a.92.92,0,0,1-.916-.923Z" transform="translate(-21.007 -84.057)" fill="#fff"/>
        <path id="Path_1392" data-name="Path 1392" d="M102.063,127.34v18.665a.92.92,0,0,1-.916.923h-.226a.919.919,0,0,1-.916-.923v-8.542H87.654v8.542a.92.92,0,0,1-.916.923h-.254a.92.92,0,0,1-.916-.923V127.34a.92.92,0,0,1,.916-.923h.254a.92.92,0,0,1,.916.923v8.219H100V127.34a.919.919,0,0,1,.916-.923h.226a.92.92,0,0,1,.916.923" transform="translate(-56.842 -84.057)" fill="#fff"/>
        <path id="Path_1393" data-name="Path 1393" d="M159.3,145.976v.029a.92.92,0,0,1-.916.923H146.259a.919.919,0,0,1-.916-.923V127.34a.919.919,0,0,1,.916-.923h11.7a.92.92,0,0,1,.916.923v.029a.92.92,0,0,1-.916.923H147.429v7.3h9.292a.923.923,0,0,1,0,1.846h-9.292v7.618h10.956a.919.919,0,0,1,.916.923" transform="translate(-96.733 -84.057)" fill="#fff"/>
        <path id="Path_1394" data-name="Path 1394" d="M237.281,137.541a5.129,5.129,0,0,1,.832,2.915,5.515,5.515,0,0,1-1,3.282,6.283,6.283,0,0,1-2.834,2.154,12.459,12.459,0,0,1-8.5,0,6.194,6.194,0,0,1-2.806-2.154,5.563,5.563,0,0,1-.987-3.282,5.188,5.188,0,0,1,.818-2.915,5.642,5.642,0,0,1,2.341-1.978,4.771,4.771,0,0,1-1.819-1.773,4.975,4.975,0,0,1-.634-2.535,5.074,5.074,0,0,1,.916-3.018,5.88,5.88,0,0,1,2.58-1.993,10.889,10.889,0,0,1,7.7,0,5.979,5.979,0,0,1,2.594,1.993,5.021,5.021,0,0,1,.931,3.018,4.816,4.816,0,0,1-.649,2.52,5.09,5.09,0,0,1-1.861,1.787,5.72,5.72,0,0,1,2.383,1.978m-4.047,5.231a2.859,2.859,0,0,0,1.184-2.432,2.831,2.831,0,0,0-1.184-2.4,5.28,5.28,0,0,0-3.214-.879,5.153,5.153,0,0,0-3.186.879,2.855,2.855,0,0,0-1.156,2.4,2.884,2.884,0,0,0,1.156,2.432,5.153,5.153,0,0,0,3.186.879,5.28,5.28,0,0,0,3.214-.879M227.3,129.293a2.739,2.739,0,0,0,0,4.234,4.328,4.328,0,0,0,2.721.776,4.439,4.439,0,0,0,2.763-.776,2.7,2.7,0,0,0-.014-4.234,4.517,4.517,0,0,0-2.749-.762,4.389,4.389,0,0,0-2.721.762" transform="translate(-147.879 -83.475)" fill="#fff"/>
        <path id="Path_1395" data-name="Path 1395" d="M280.035,145.394a8.332,8.332,0,0,1-2.932-3.633,15.533,15.533,0,0,1,0-11.34,8.334,8.334,0,0,1,2.932-3.633,7.829,7.829,0,0,1,8.474,0,8.3,8.3,0,0,1,2.947,3.633,15.533,15.533,0,0,1,0,11.34,8.3,8.3,0,0,1-2.947,3.633,7.829,7.829,0,0,1-8.474,0m7.571-3.883a12.589,12.589,0,0,0,0-10.841,3.956,3.956,0,0,0-6.655,0,12.592,12.592,0,0,0,0,10.841,3.956,3.956,0,0,0,6.655,0" transform="translate(-183.948 -83.475)" fill="#fff"/>
        <path id="Path_1396" data-name="Path 1396" d="M340.57,114h1.094a.983.983,0,0,1,.925,1.3l-8.641,25.633a.978.978,0,0,1-.925.668h-1.094a.983.983,0,0,1-.925-1.3l8.642-25.633a.977.977,0,0,1,.925-.668" transform="translate(-220.598 -75.801)" fill="#fff"/>
        <path id="Path_1397" data-name="Path 1397" d="M384.093,144.46v.549a1.332,1.332,0,0,1-1.328,1.337H370.87a1.332,1.332,0,0,1-1.328-1.337v-.65a1.341,1.341,0,0,1,.4-.955l7.44-7.342a8.9,8.9,0,0,0,1.791-2.3,4.514,4.514,0,0,0,.465-1.948,2.678,2.678,0,0,0-.93-2.2,4.237,4.237,0,0,0-2.735-.762,5.644,5.644,0,0,0-3.871,1.321,1.307,1.307,0,0,1-1.689.07l-.526-.421a1.345,1.345,0,0,1-.066-2.043,8.086,8.086,0,0,1,2.077-1.344,10.449,10.449,0,0,1,4.385-.894,7.811,7.811,0,0,1,5.132,1.583,5.287,5.287,0,0,1,1.918,4.307,7.393,7.393,0,0,1-.677,3.135,12.168,12.168,0,0,1-2.595,3.34l-5.273,5.216h7.978a1.333,1.333,0,0,1,1.328,1.337" transform="translate(-246.245 -83.475)" fill="#fff"/>
        <path id="Path_1398" data-name="Path 1398" d="M422.545,145.394a8.33,8.33,0,0,1-2.932-3.633,15.533,15.533,0,0,1,0-11.34,8.332,8.332,0,0,1,2.932-3.633,7.829,7.829,0,0,1,8.474,0,8.3,8.3,0,0,1,2.947,3.633,15.537,15.537,0,0,1,0,11.34,8.3,8.3,0,0,1-2.947,3.633,7.829,7.829,0,0,1-8.474,0m7.571-3.883a12.589,12.589,0,0,0,0-10.841,3.955,3.955,0,0,0-6.655,0,12.592,12.592,0,0,0,0,10.841,3.955,3.955,0,0,0,6.655,0" transform="translate(-279.052 -83.475)" fill="#fff"/>
      </g>
    </g>
  </g>
</svg>
