<svg xmlns="http://www.w3.org/2000/svg" width="51.512" height="64" viewBox="0 0 51.512 64">
  <g id="NFT_Launchpad" data-name="NFT Launchpad" transform="translate(-8.829 -2)">
    <path id="Path_1407" data-name="Path 1407" d="M62.645,44.36a.882.882,0,0,1-.241-.033.914.914,0,0,1-.64-1.123c.245-.9.445-1.763.6-2.576a.914.914,0,0,1,1.8.331c-.159.864-.371,1.782-.63,2.726a.914.914,0,0,1-.882.674Z" transform="translate(-4.535 -3.247)" fill="#fff"/>
    <path id="Path_1408" data-name="Path 1408" d="M34.585,66a.936.936,0,0,1-.274-.04l-.357-.119A37.282,37.282,0,0,1,8.83,30.388V13.712a.914.914,0,0,1,.951-.914C20.71,13.235,28.359,9.92,33.846,2.375A.9.9,0,0,1,34.61,2a.914.914,0,0,1,.743.419C40.7,10.706,50.109,12.3,59.475,12.8a.914.914,0,0,1,.866.914V22.07a.914.914,0,0,1-1.829,0V14.576c-9.159-.553-18.267-2.3-23.963-10.1-5.645,7.148-13.288,10.4-23.89,10.179V30.388A35.445,35.445,0,0,0,34.521,64.1l.052.017c1.059-.379,2.087-.787,3.063-1.214A34.743,34.743,0,0,0,54.974,46.021a.914.914,0,0,1,1.646.79A36.571,36.571,0,0,1,38.371,64.579c-1.105.485-2.278.945-3.482,1.371a.914.914,0,0,1-.3.049Z" transform="translate(0 0)" fill="#fff"/>
    <path id="Path_1409" data-name="Path 1409" d="M64.065,34.5H64a.914.914,0,0,1-.851-.973c.017-.245.016-.48.016-.725V30.884a.914.914,0,1,1,1.829,0V32.8c0,.286,0,.561-.02.848a.914.914,0,0,1-.912.853Z" transform="translate(-4.656 -2.398)" fill="#fff"/>
    <path id="Path_1410" data-name="Path 1410" d="M35.062,60.017a.914.914,0,0,1-.337-.064c-12.272-4.875-19.9-15.908-19.9-28.791V19.885a.914.914,0,0,1,.845-.914c7.608-.582,13.738-3.088,18.743-7.656a.914.914,0,0,1,1.225-.008c4.56,4.057,10.572,6.388,18.918,7.336a.914.914,0,0,1,.811.909V31.175A30.549,30.549,0,0,1,36.688,59.414q-.631.274-1.285.539A.914.914,0,0,1,35.062,60.017Zm-18.4-39.293V31.163c0,12,7.04,22.3,18.4,26.955.3-.123.6-.251.893-.379,11.012-4.822,17.587-14.752,17.587-26.563V20.365c-7.963-1.006-13.882-3.3-18.5-7.157a31.68,31.68,0,0,1-18.385,7.516Z" transform="translate(-0.514 -0.778)" fill="#fff"/>
    <path id="Path_1411" data-name="Path 1411" d="M32.492,42.853a.914.914,0,0,1-.646-.268l-4.953-4.953a.914.914,0,1,1,1.293-1.293l4.306,4.305L44.036,29.1a.914.914,0,1,1,1.293,1.294l-12.19,12.19A.914.914,0,0,1,32.492,42.853Z" transform="translate(-1.525 -2.3)" fill="#fff"/>
  </g>
</svg>
