<svg xmlns="http://www.w3.org/2000/svg" width="62.001" height="62.001" viewBox="0 0 62.001 62.001">
  <g id="Decentralized" transform="translate(-1 -1)">
    <path id="Path_1405" data-name="Path 1405" d="M24.642,19.713l1.916.574c.2-.666.422-1.312.66-1.922l-1.861-.73c-.259.661-.5,1.359-.715,2.078Z" fill="#fff"/>
    <path id="Path_1406" data-name="Path 1406" d="M60,29a3,3,0,0,0-2.816,2H52.949a20.882,20.882,0,0,0-5.434-13.1l3.2-3.2A2.972,2.972,0,0,0,52,15a3,3,0,1,0-3-3,2.951,2.951,0,0,0,.3,1.285l-3.2,3.2A20.886,20.886,0,0,0,33,11.05V6.816a3,3,0,1,0-2,0v4.235a20.882,20.882,0,0,0-13.1,5.434l-3.2-3.2A2.972,2.972,0,0,0,15,12a3,3,0,1,0-3,3,2.951,2.951,0,0,0,1.285-.3l3.2,3.2A20.886,20.886,0,0,0,11.05,31H6.816a3,3,0,1,0,0,2h4.235a20.882,20.882,0,0,0,5.434,13.1l-3.2,3.2A2.972,2.972,0,0,0,12,49a3,3,0,1,0,3,3,2.951,2.951,0,0,0-.3-1.285l3.2-3.2A20.886,20.886,0,0,0,31,52.95v4.235a3,3,0,1,0,2,0V52.95a20.882,20.882,0,0,0,13.1-5.434l3.2,3.2A3.038,3.038,0,1,0,50.715,49.3l-3.2-3.2A20.886,20.886,0,0,0,52.95,33h4.235A3,3,0,1,0,60,29ZM28.082,16.47C29.273,14.232,30.664,13,32,13c2.369,0,4.925,4.009,6.191,10.385a49.978,49.978,0,0,0-12.375,0c.076-.387.142-.785.229-1.159L24.1,21.774c-.144.623-.264,1.274-.381,1.929-4.382.786-7.964,2.183-10.2,3.958A19.036,19.036,0,0,1,27.6,13.534a13.292,13.292,0,0,0-1.286,2ZM39,32a46.255,46.255,0,0,1-.457,6.543A44.88,44.88,0,0,1,34,38.959V37a2.987,2.987,0,0,0,2.22-5A2.987,2.987,0,0,0,34,27V25.041a44.593,44.593,0,0,1,4.543.416A46.256,46.256,0,0,1,39,32ZM25,32a46.766,46.766,0,0,1,.466-6.545c1.121-.16,2.3-.279,3.534-.354V27H27v2h1v6H27v2h2v1.9q-1.854-.114-3.543-.356A46.255,46.255,0,0,1,25,32Zm10,2a1,1,0,0,1-1,1H30V33h4A1,1,0,0,1,35,34Zm-1-3H30V29h4a1,1,0,0,1,0,2Zm-2-4H31V25.021c.334-.007.66-.021,1-.021ZM31,37h1v2c-.34,0-.666-.014-1-.021ZM23.4,25.806a48.985,48.985,0,0,0-.016,12.385C17.009,36.925,13,34.369,13,32S17.016,27.071,23.4,25.806Zm.305,14.488c.786,4.378,2.183,7.956,3.956,10.187A19.039,19.039,0,0,1,13.519,36.338C15.75,38.112,19.328,39.508,23.706,40.294Zm2.1.321A49.022,49.022,0,0,0,32,41a49.023,49.023,0,0,0,6.191-.385C36.925,46.991,34.369,51,32,51s-4.925-4.009-6.191-10.385Zm14.485-.321c4.378-.786,7.956-2.183,10.187-3.956A19.039,19.039,0,0,1,36.338,50.481c1.774-2.231,3.17-5.809,3.956-10.187Zm.321-2.1A49.022,49.022,0,0,0,41,32a49.023,49.023,0,0,0-.385-6.191C46.991,27.075,51,29.631,51,32s-4.009,4.925-10.385,6.191Zm-.321-14.485c-.786-4.378-2.183-7.956-3.956-10.187A19.039,19.039,0,0,1,50.481,27.662C48.25,25.888,44.672,24.492,40.294,23.706ZM52,11a1,1,0,1,1-1,1A1,1,0,0,1,52,11ZM32,3a1,1,0,1,1-1,1A1,1,0,0,1,32,3ZM11,12a1,1,0,1,1,1,1A1,1,0,0,1,11,12ZM4,33a1,1,0,1,1,1-1A1,1,0,0,1,4,33Zm8,20a1,1,0,1,1,1-1A1,1,0,0,1,12,53Zm20,8a1,1,0,1,1,1-1A1,1,0,0,1,32,61Zm21-9a1,1,0,1,1-1-1A1,1,0,0,1,53,52Zm7-19a1,1,0,1,1,1-1A1,1,0,0,1,60,33Z" fill="#fff"/>
  </g>
</svg>
