<svg xmlns="http://www.w3.org/2000/svg" xmlns:xlink="http://www.w3.org/1999/xlink" width="57.106" height="57.107" viewBox="0 0 57.106 57.107">
  <defs>
    <linearGradient id="linear-gradient" x1="0.5" x2="0.5" y2="1" gradientUnits="objectBoundingBox">
      <stop offset="0" stop-color="#4f24ff"/>
      <stop offset="1" stop-color="#13d9e2"/>
    </linearGradient>
  </defs>
  <g id="Discord" transform="translate(-5421.79 -1621.47)">
    <path id="Path_2557" data-name="Path 2557" d="M5450.364,1621.47a28.553,28.553,0,1,0,28.533,28.574A28.466,28.466,0,0,0,5450.364,1621.47ZM5462.723,1665a2.574,2.574,0,0,1-2.918-1.183,15.4,15.4,0,0,0-1.122-1.463c2.051-1.171,4.031-2.3,6.01-3.425-.061-.168-.122-.336-.186-.5-9.428,5.059-18.838,5.1-28.253.023.58,1.242,1.569,1.87,5.672,3.641-.721,2.237-2.15,3.138-4.385,2.83a15.2,15.2,0,0,1-9.094-4.407,2.489,2.489,0,0,1-.708-1.613,45.177,45.177,0,0,1,5.329-19.581,2.167,2.167,0,0,1,.631-.776,19.29,19.29,0,0,1,9.672-3.54,2.1,2.1,0,0,1,.628.051c.1.026.186.148.308.252-2.776,1.275-5.519,2.539-8.265,3.8.053.158.109.318.163.478a33.839,33.839,0,0,1,28.245-.013c.062-.165.123-.333.184-.5-2.743-1.247-5.486-2.494-8.55-3.888a9.289,9.289,0,0,1,1.529-.16,19.342,19.342,0,0,1,9.2,3.4,2.637,2.637,0,0,1,.816.937,44.917,44.917,0,0,1,5.3,19.459,2.635,2.635,0,0,1-.733,1.728A15.741,15.741,0,0,1,5462.723,1665Z" fill="url(#linear-gradient)"/>
    <path id="Path_2558" data-name="Path 2558" d="M5498.989,1730.783a3.907,3.907,0,0,1-4.092,3.8,3.96,3.96,0,0,1-3.8-4.122,3.913,3.913,0,0,1,4.028-3.873A3.976,3.976,0,0,1,5498.989,1730.783Z" transform="translate(-51.668 -78.37)" fill="url(#linear-gradient)"/>
    <path id="Path_2559" data-name="Path 2559" d="M5553.8,1730.653a3.936,3.936,0,0,1-3.978,3.937,3.887,3.887,0,0,1-3.908-3.98,3.944,3.944,0,1,1,7.886.043Z" transform="translate(-92.536 -78.378)" fill="url(#linear-gradient)"/>
  </g>
</svg>
