<svg xmlns="http://www.w3.org/2000/svg" width="69.809" height="62" viewBox="0 0 69.809 62">
  <g id="Earn_Passive_Income" data-name="Earn Passive Income" transform="translate(-264.482 -816.253)">
    <g id="Group_293" data-name="Group 293" transform="translate(323.124 820.985)">
      <path id="Path_1418" data-name="Path 1418" d="M419.9,885.858a2.5,2.5,0,0,1-1.828-.587,2.571,2.571,0,0,1-.629-1.934c.023-17.777.022-35.366,0-52.277a2.527,2.527,0,0,1,.611-1.889,2.437,2.437,0,0,1,1.831-.566c1.945.033,4.019.059,6.107-.007a2.548,2.548,0,0,1,1.966.577,2.777,2.777,0,0,1,.653,2.112c-.035,6.5-.03,13.111-.026,19.5q0,3.269,0,6.537v8.492q0,8.49,0,16.977c0,2.608-.424,3.035-3,3.048-.669,0-1.336,0-2-.006-1.162-.007-2.363-.015-3.539.017Zm-.114-56.487a1.666,1.666,0,0,0-1.2.347,1.838,1.838,0,0,0-.381,1.34c.026,16.911.027,34.5,0,52.279a1.878,1.878,0,0,0,.4,1.384,1.915,1.915,0,0,0,1.412.367c1.189-.032,2.4-.025,3.564-.017.666,0,1.331.009,2,.006,2.15-.01,2.233-.1,2.237-2.282q0-8.486,0-16.976v-8.492q0-3.268,0-6.536c0-6.394-.008-13.007.026-19.509a2.11,2.11,0,0,0-.421-1.559,1.9,1.9,0,0,0-1.407-.36c-2.105.068-4.19.041-6.145.008Z" transform="translate(-417.439 -828.594)" fill="#fff"/>
    </g>
    <g id="Group_294" data-name="Group 294" transform="translate(265.646 816.253)">
      <path id="Path_1419" data-name="Path 1419" d="M267.517,857.609l.5-.744c.118-.173.224-.359.332-.545a4.259,4.259,0,0,1,.92-1.228c1.5-1.223,3.052-2.434,4.552-3.6,2.653-2.071,5.4-4.213,7.942-6.483,5.954-5.308,11.914-10.81,17.678-16.132q3.408-3.146,6.821-6.287l-.107-.083-.161-.125-1.943-3.252.437-.158c.319-.116.636-.245.953-.375a11.978,11.978,0,0,1,2.193-.734c1.512-.292,3.055-.542,4.547-.785,1.417-.23,2.883-.469,4.316-.741a1.744,1.744,0,0,1,2.387,2.086h0c-.071,1.482-.13,2.966-.188,4.449-.078,1.991-.159,4.05-.272,6.074a3.482,3.482,0,0,1-.429,1.305c-.082.169-.164.337-.229.507l-.138.356-.357-.137c-.167-.064-.336-.125-.5-.186a11,11,0,0,1-1.349-.557,3.842,3.842,0,0,1-.822-.635l-.165-.151-1,.776q-1.247.968-2.486,1.939a212.475,212.475,0,0,1-40.186,24.831.857.857,0,0,1-.261.114Zm39.064-35.748.047.036c.154.119.309.24.464.358l.366.278-.338.31q-3.584,3.291-7.155,6.594c-5.766,5.324-11.73,10.829-17.688,16.141-2.564,2.286-5.318,4.436-7.981,6.515-1.5,1.169-3.044,2.377-4.538,3.594a3.2,3.2,0,0,0-.66.876l1.23-.207c.053-.031.082-.047.112-.06a211.73,211.73,0,0,0,40.038-24.739q1.24-.975,2.489-1.941l1.491-1.16.238.2c.156.131.294.259.424.379a3.2,3.2,0,0,0,.655.517,10.158,10.158,0,0,0,1.257.517l.174.063c.034-.072.069-.144.1-.216a2.891,2.891,0,0,0,.353-1.013c.113-2.019.194-4.074.272-6.062.058-1.486.117-2.972.188-4.456.03-.623-.057-1.015-.266-1.2a1.511,1.511,0,0,0-1.212-.1c-1.442.274-2.913.513-4.336.745-1.486.242-3.023.492-4.523.781a11.246,11.246,0,0,0-2.05.691c-.183.075-.366.149-.549.222Z" transform="translate(-267.517 -816.253)" fill="#fff"/>
    </g>
    <g id="Group_295" data-name="Group 295" transform="translate(308.47 835.995)">
      <path id="Path_1420" data-name="Path 1420" d="M381.68,910.005a2.463,2.463,0,0,1-1.8-.585,2.732,2.732,0,0,1-.65-2.1c.036-4.48.03-9.036.024-13.442q0-2.564-.005-5.129,0-2.516.008-5.032c.01-4.313.02-8.773-.038-13.158a2.872,2.872,0,0,1,.671-2.229,2.8,2.8,0,0,1,2.211-.575c1.862.1,3.77.06,5.614.021l.292-.007a2.068,2.068,0,0,1,2.382,2.335h0q-.009,13.968,0,27.937v9.6a2.368,2.368,0,0,1-.6,1.752,2.451,2.451,0,0,1-1.8.59l-.6-.007c-1.808-.021-3.678-.043-5.512.018C381.8,910,381.742,910.005,381.68,910.005Zm.055-41.491a1.839,1.839,0,0,0-1.315.372,2.21,2.21,0,0,0-.435,1.664c.058,4.392.048,8.855.038,13.171q-.006,2.515-.008,5.03,0,2.564.005,5.128c.006,4.408.012,8.966-.024,13.45a2.091,2.091,0,0,0,.418,1.542,1.93,1.93,0,0,0,1.428.365c1.853-.063,3.731-.041,5.548-.019l.6.007a1.672,1.672,0,0,0,1.249-.369,1.63,1.63,0,0,0,.376-1.207v-9.6q0-13.969,0-27.938a1.327,1.327,0,0,0-1.6-1.568l-.292.006c-1.859.039-3.78.081-5.672-.022Q381.888,868.515,381.735,868.515Z" transform="translate(-379.217 -867.747)" fill="#fff"/>
    </g>
    <g id="Group_296" data-name="Group 296" transform="translate(293.787 847.738)">
      <path id="Path_1421" data-name="Path 1421" d="M343.369,928.888a2.481,2.481,0,0,1-1.8-.588,2.53,2.53,0,0,1-.642-1.919c.021-9.509.02-17.843,0-25.478a2.55,2.55,0,0,1,.635-1.922,2.651,2.651,0,0,1,1.984-.6c2.132.054,4.066.054,5.915,0a2.589,2.589,0,0,1,1.989.6,2.773,2.773,0,0,1,.659,2.1c-.036,3-.03,6.056-.024,9.009q0,1.719,0,3.439h0q.006,6.033,0,12.07c0,2.906-.382,3.273-3.366,3.277-.53,0-1.06,0-1.591-.009-1.17-.009-2.382-.02-3.569.02Q343.462,928.888,343.369,928.888Zm.039-29.744a1.831,1.831,0,0,0-1.318.384,1.854,1.854,0,0,0-.4,1.372c.024,7.637.025,15.971,0,25.482a1.834,1.834,0,0,0,.408,1.366,1.928,1.928,0,0,0,1.434.37c1.2-.041,2.423-.03,3.6-.021.528,0,1.056.009,1.584.009,2.571,0,2.6-.027,2.6-2.512q.011-6.038,0-12.068h0q0-1.72,0-3.438c-.006-2.955-.012-6.011.024-9.019a2.088,2.088,0,0,0-.429-1.546,1.9,1.9,0,0,0-1.43-.378c-1.865.054-3.813.054-5.957,0Z" transform="translate(-340.919 -898.377)" fill="#fff"/>
    </g>
    <g id="Group_297" data-name="Group 297" transform="translate(279.106 859.56)">
      <path id="Path_1422" data-name="Path 1422" d="M304.9,947.884a2.243,2.243,0,0,1-1.659-.579,2.533,2.533,0,0,1-.6-1.893c.013-1.545.01-3.092.007-4.637q0-1.029,0-2.057t.006-2.066c.007-1.578.015-3.21-.018-4.811a2.642,2.642,0,0,1,.623-2.012,2.505,2.505,0,0,1,1.906-.614c1.72.029,3.471.02,5.165.013l1.142,0a2.284,2.284,0,0,1,1.729.577,2.418,2.418,0,0,1,.591,1.81c-.034,5.081-.02,10.131,0,13.963h0a2.42,2.42,0,0,1-.518,1.688,2.148,2.148,0,0,1-1.67.625Zm.172-17.9a1.738,1.738,0,0,0-1.276.389,1.949,1.949,0,0,0-.4,1.455c.032,1.611.025,3.248.018,4.831q0,1.032-.006,2.063t0,2.055c0,1.549.007,3.1-.007,4.646a1.838,1.838,0,0,0,.381,1.347,1.5,1.5,0,0,0,1.114.352h6.694a1.411,1.411,0,0,0,1.1-.369,1.739,1.739,0,0,0,.322-1.174h0c-.016-3.834-.03-8.887,0-13.971a1.721,1.721,0,0,0-.367-1.263,1.618,1.618,0,0,0-1.184-.352l-1.142.005c-1.7.008-3.453.016-5.181-.013Z" transform="translate(-302.626 -929.213)" fill="#fff"/>
    </g>
    <g id="Group_298" data-name="Group 298" transform="translate(264.482 865.966)">
      <path id="Path_1423" data-name="Path 1423" d="M270.057,958.189q-1.671,0-3.342,0a2.006,2.006,0,0,1-2.227-2.279c.016-.915.012-1.846.008-2.747q0-.626,0-1.254c.007-.764,0-1.422,0-1.991-.018-1.927-.027-2.894.538-3.458s1.532-.552,3.459-.528c.559.007,1.2.014,1.948.011.444,0,.846-.007,1.211-.012,1.913-.024,2.873-.037,3.436.524s.558,1.532.543,3.462c0,.369-.006.776-.006,1.224h0q0,.8,0,1.592c0,1.04-.009,2.115,0,3.173a2.285,2.285,0,0,1-.556,1.7,2.254,2.254,0,0,1-1.666.582Q271.728,958.189,270.057,958.189Zm-2.572-11.5c-1.042,0-1.655.051-1.917.313-.337.336-.328,1.249-.313,2.908.005.573.012,1.235,0,2,0,.414,0,.83,0,1.247,0,.9.008,1.841-.008,2.763a1.56,1.56,0,0,0,.337,1.146,1.542,1.542,0,0,0,1.125.354q3.34.006,6.677,0a1.536,1.536,0,0,0,1.121-.353,1.57,1.57,0,0,0,.337-1.152c-.013-1.065-.008-2.143,0-3.186q0-.794,0-1.589c0-.451,0-.86.006-1.231.013-1.662.02-2.577-.317-2.912s-1.242-.323-2.885-.3c-.367.005-.772.01-1.218.012-.75,0-1.4,0-1.961-.011C268.109,946.693,267.78,946.689,267.485,946.689Z" transform="translate(-264.482 -945.921)" fill="#fff"/>
    </g>
  </g>
</svg>
