<svg xmlns="http://www.w3.org/2000/svg" xmlns:xlink="http://www.w3.org/1999/xlink" width="59.589" height="57.107" viewBox="0 0 59.589 57.107">
  <defs>
    <linearGradient id="linear-gradient" x1="0.5" x2="0.5" y2="1" gradientUnits="objectBoundingBox">
      <stop offset="0" stop-color="#4f24ff"/>
      <stop offset="1" stop-color="#13d9e2"/>
    </linearGradient>
  </defs>
  <path id="github" d="M29.794.5C13.333.5,0,13.61,0,29.778A29.327,29.327,0,0,0,20.372,57.556c1.49.276,2.036-.631,2.036-1.408,0-.7-.025-2.537-.037-4.978-8.288,1.765-10.036-3.928-10.036-3.928C10.979,43.863,9.02,42.96,9.02,42.96c-2.7-1.815.209-1.778.209-1.778A6.233,6.233,0,0,1,13.792,44.2c2.657,4.477,6.974,3.183,8.678,2.436a6.2,6.2,0,0,1,1.887-3.915c-6.617-.732-13.571-3.25-13.571-14.468A11.186,11.186,0,0,1,13.852,20.4a10.244,10.244,0,0,1,.261-7.749s2.5-.785,8.193,3a28.567,28.567,0,0,1,14.9,0c5.661-3.786,8.156-3,8.156-3a10.527,10.527,0,0,1,.3,7.749,11.231,11.231,0,0,1,3.054,7.856c0,11.247-6.964,13.723-13.594,14.443,1.043.879,2.011,2.674,2.011,5.418,0,3.918-.037,7.066-.037,8.017,0,.767.521,1.683,2.048,1.39A29.238,29.238,0,0,0,59.589,29.778C59.589,13.61,46.248.5,29.794.5Z" transform="translate(0 -0.5)" fill="url(#linear-gradient)"/>
</svg>
