<svg xmlns="http://www.w3.org/2000/svg" width="33.213" height="36" viewBox="0 0 33.213 36">
  <g id="icon_sidebar_inactive_3._ideas" data-name="icon / sidebar / inactive / 3. ideas" transform="translate(51.737 -70.089)">
    <g id="Group_880" data-name="Group 880" transform="translate(-50.371 71.089)">
      <path id="Vector" d="M30.481,23.7V10.157a3.387,3.387,0,0,0-1.693-2.93L16.934.454a3.387,3.387,0,0,0-3.387,0L1.693,7.227A3.387,3.387,0,0,0,0,10.157V23.7a3.387,3.387,0,0,0,1.693,2.93l11.854,6.774a3.387,3.387,0,0,0,3.387,0l11.854-6.774a3.387,3.387,0,0,0,1.693-2.93Z" transform="translate(0 0)" fill="#9f9ffb" stroke="#081236" stroke-linecap="round" stroke-linejoin="round" stroke-width="2"/>
      <path id="Vector-2" data-name="Vector" d="M0,0,7.62,4.4,15.241,0" transform="translate(7.621 3.739)" fill="#9f9ffb" stroke="#081236" stroke-linecap="round" stroke-linejoin="round" stroke-width="2"/>
      <path id="Vector-3" data-name="Vector" d="M7.62,13.192V4.4L0,0" transform="translate(0 16.931)" fill="#9f9ffb" stroke="#081236" stroke-linecap="round" stroke-linejoin="round" stroke-width="2"/>
      <path id="Vector-4" data-name="Vector" d="M7.62,0,0,4.4v8.789" transform="translate(22.86 16.931)" fill="#9f9ffb" stroke="#081236" stroke-linecap="round" stroke-linejoin="round" stroke-width="2"/>
      <path id="Vector-5" data-name="Vector" d="M0,0,14.783,8.552,29.567,0" transform="translate(0.457 8.396)" fill="#9f9ffb" stroke="#081236" stroke-linecap="round" stroke-linejoin="round" stroke-width="2"/>
      <path id="Vector-6" data-name="Vector" d="M0,17.069V0" transform="translate(15.241 16.931)" fill="#9f9ffb" stroke="#081236" stroke-linecap="round" stroke-linejoin="round" stroke-width="2"/>
    </g>
  </g>
</svg>
