<svg id="instagram" xmlns="http://www.w3.org/2000/svg" xmlns:xlink="http://www.w3.org/1999/xlink" width="57.107" height="57.107" viewBox="0 0 57.107 57.107">
  <defs>
    <linearGradient id="linear-gradient" x1="0.5" x2="0.5" y2="1" gradientUnits="objectBoundingBox">
      <stop offset="0" stop-color="#4f24ff"/>
      <stop offset="1" stop-color="#13d9e2"/>
    </linearGradient>
  </defs>
  <path id="Path_100" data-name="Path 100" d="M218.313,212.656A5.656,5.656,0,1,1,212.656,207,5.656,5.656,0,0,1,218.313,212.656Zm0,0" transform="translate(-184.103 -184.103)" fill="url(#linear-gradient)"/>
  <path id="Path_101" data-name="Path 101" d="M162.624,139.392a5.619,5.619,0,0,0-3.22-3.22,9.387,9.387,0,0,0-3.151-.584c-1.79-.082-2.326-.1-6.857-.1s-5.068.017-6.857.1a9.394,9.394,0,0,0-3.151.584,5.622,5.622,0,0,0-3.221,3.22,9.394,9.394,0,0,0-.584,3.151c-.082,1.789-.1,2.326-.1,6.857s.018,5.067.1,6.857a9.39,9.39,0,0,0,.584,3.151,5.619,5.619,0,0,0,3.22,3.22,9.376,9.376,0,0,0,3.151.584c1.789.082,2.325.1,6.857.1s5.068-.017,6.857-.1a9.376,9.376,0,0,0,3.151-.584,5.619,5.619,0,0,0,3.22-3.22,9.4,9.4,0,0,0,.584-3.151c.082-1.79.1-2.326.1-6.857s-.017-5.068-.1-6.857A9.377,9.377,0,0,0,162.624,139.392ZM149.4,158.113a8.713,8.713,0,1,1,8.713-8.713A8.713,8.713,0,0,1,149.4,158.113Zm9.058-15.735a2.036,2.036,0,1,1,2.036-2.036A2.036,2.036,0,0,1,158.454,142.378Zm0,0" transform="translate(-120.843 -120.846)" fill="url(#linear-gradient)"/>
  <path id="Path_102" data-name="Path 102" d="M28.553,0A28.553,28.553,0,1,0,57.107,28.553,28.557,28.557,0,0,0,28.553,0Zm16.3,35.313a12.029,12.029,0,0,1-.762,3.98,8.384,8.384,0,0,1-4.8,4.8,12.038,12.038,0,0,1-3.98.762c-1.748.08-2.307.1-6.76.1s-5.011-.019-6.76-.1a12.038,12.038,0,0,1-3.98-.762,8.384,8.384,0,0,1-4.8-4.8,12.026,12.026,0,0,1-.762-3.98c-.081-1.749-.1-2.307-.1-6.76s.019-5.011.1-6.76a12.031,12.031,0,0,1,.762-3.98,8.389,8.389,0,0,1,4.8-4.8,12.04,12.04,0,0,1,3.98-.762c1.748-.08,2.307-.1,6.76-.1s5.011.019,6.76.1a12.043,12.043,0,0,1,3.98.761,8.386,8.386,0,0,1,4.8,4.8,12.028,12.028,0,0,1,.762,3.98c.08,1.748.1,2.307.1,6.76S44.931,33.565,44.85,35.313Zm0,0" fill="url(#linear-gradient)"/>
</svg>
