<svg xmlns="http://www.w3.org/2000/svg" xmlns:xlink="http://www.w3.org/1999/xlink" width="39.043" height="39.034" viewBox="0 0 39.043 39.034">
  <defs>
    <linearGradient id="linear-gradient" x1="0.5" x2="0.5" y2="1" gradientUnits="objectBoundingBox">
      <stop offset="0" stop-color="#4f24ff"/>
      <stop offset="1" stop-color="#13d9e2"/>
    </linearGradient>
  </defs>
  <g id="Open_App" data-name="Open App" transform="translate(-1 -0.053)">
    <g id="Group_288" data-name="Group 288" transform="translate(1 0.053)">
      <g id="Group_287" data-name="Group 287" transform="translate(0)">
        <path id="Path_1399" data-name="Path 1399" d="M50.252,34.432a.959.959,0,0,0-1.257.01l-2.619,2.343v-.307a.651.651,0,1,0-1.3,0V37.95l-1.085.971a.651.651,0,0,0,.868.969l4.771-4.27L54.4,39.89a.651.651,0,1,0,.868-.969Z" transform="translate(-40.517 -31.599)" fill="url(#linear-gradient)"/>
        <path id="Path_1400" data-name="Path 1400" d="M69.244,119.52a.651.651,0,0,0-.651.651v4.554H62.088v-4.554a.651.651,0,0,0-1.3,0v4.967a.9.9,0,0,0,.911.888h7.286a.9.9,0,0,0,.911-.89v-4.965A.651.651,0,0,0,69.244,119.52Z" transform="translate(-56.229 -110.412)" fill="url(#linear-gradient)"/>
        <path id="Path_1401" data-name="Path 1401" d="M65.341,221.92a4.554,4.554,0,1,0,4.554,4.554A4.554,4.554,0,0,0,65.341,221.92Zm-3.253,4.554a3.259,3.259,0,0,1,2.6-3.188v2.819l-2.407,1.444A3.207,3.207,0,0,1,62.088,226.474Zm.866,2.19,2.286-1.372,1.892,1.892A3.222,3.222,0,0,1,62.954,228.664Zm5.1-.4-2.06-2.06v-2.918a3.247,3.247,0,0,1,2.06,4.978Z" transform="translate(-56.229 -205.005)" fill="url(#linear-gradient)"/>
        <path id="Path_1402" data-name="Path 1402" d="M256.9,43.295V41.068a1.027,1.027,0,0,0-1.026-1.026h-1.852A1.027,1.027,0,0,0,253,41.068v2.227h-1.3V39.216a1.127,1.127,0,0,0-1.126-1.126h-1.652a1.127,1.127,0,0,0-1.125,1.126v4.079h-1.3V36.139a1.3,1.3,0,0,0-1.3-1.3h-1.3a1.3,1.3,0,0,0-1.3,1.3v7.156h-.651a.651.651,0,0,1-.651-.651V34.838a.651.651,0,0,0-1.3,0v7.807a1.952,1.952,0,0,0,1.952,1.952H256.9a.651.651,0,1,0,0-1.3Zm-11.71,0h-1.3V36.139h1.3Zm5.2,0h-1.3v-3.9h1.3Zm5.2,0h-1.3V41.343h1.3v1.952Z" transform="translate(-221.767 -31.585)" fill="url(#linear-gradient)"/>
        <path id="Path_1403" data-name="Path 1403" d="M256.9,213.962H241.939a.651.651,0,0,1-.651-.651V212.28l2.142-2.142a.664.664,0,0,1,.92,0l.762.762a1.952,1.952,0,0,0,2.76,0l2.714-2.714a.664.664,0,0,1,.92,0l.762.763a1.956,1.956,0,0,0,2.76,0l2.333-2.333a.651.651,0,0,0-.92-.92l-2.333,2.332a.651.651,0,0,1-.92,0l-.762-.762a2,2,0,0,0-2.76,0l-2.714,2.714a.651.651,0,0,1-.92,0l-.762-.762a2,2,0,0,0-2.76,0l-1.222,1.222V205.5a.651.651,0,0,0-1.3,0v7.807a1.952,1.952,0,0,0,1.952,1.952H256.9a.651.651,0,1,0,0-1.3Z" transform="translate(-221.767 -189.24)" fill="url(#linear-gradient)"/>
        <path id="Path_1404" data-name="Path 1404" d="M40.038,30.275V3.66A3.448,3.448,0,0,0,36.786.053H4.257A3.448,3.448,0,0,0,1,3.66V30.275a3.448,3.448,0,0,0,3.253,3.608H14.666v1.3h-2.6a2.6,2.6,0,0,0-2.6,2.6v.651a.651.651,0,0,0,.651.651H30.93a.651.651,0,0,0,.651-.651v-.651a2.6,2.6,0,0,0-2.6-2.6h-2.6v-1.3H36.786A3.448,3.448,0,0,0,40.038,30.275Zm-11.06,6.21a1.3,1.3,0,0,1,1.3,1.3H10.763a1.3,1.3,0,0,1,1.3-1.3Zm-13.011-1.3v-1.3h9.108v1.3Zm20.818-2.6H4.257a2.155,2.155,0,0,1-1.952-2.307v-1.6H38.737v1.6A2.155,2.155,0,0,1,36.786,32.582ZM38.737,3.66V27.377H2.305V3.66A2.154,2.154,0,0,1,4.257,1.354H36.786A2.154,2.154,0,0,1,38.737,3.66Z" transform="translate(-1 -0.053)" fill="url(#linear-gradient)"/>
      </g>
    </g>
  </g>
</svg>
