<svg xmlns="http://www.w3.org/2000/svg" xmlns:xlink="http://www.w3.org/1999/xlink" width="57.107" height="57.107" viewBox="0 0 57.107 57.107">
  <defs>
    <linearGradient id="linear-gradient" x1="0.5" x2="0.5" y2="1" gradientUnits="objectBoundingBox">
      <stop offset="0" stop-color="#4f24ff"/>
      <stop offset="1" stop-color="#13d9e2"/>
    </linearGradient>
  </defs>
  <path id="twitter_1_" data-name="twitter (1)" d="M28.553,0A28.553,28.553,0,1,0,57.107,28.553,28.557,28.557,0,0,0,28.553,0ZM41.591,22.263q.019.422.019.847c0,8.66-6.592,18.647-18.647,18.647h0a18.551,18.551,0,0,1-10.046-2.944,13.329,13.329,0,0,0,1.563.091A13.15,13.15,0,0,0,22.62,36.1,6.561,6.561,0,0,1,16.5,31.546a6.532,6.532,0,0,0,2.96-.112A6.556,6.556,0,0,1,14.2,25.01c0-.03,0-.056,0-.084a6.509,6.509,0,0,0,2.968.82A6.559,6.559,0,0,1,15.139,17a18.607,18.607,0,0,0,13.509,6.848,6.557,6.557,0,0,1,11.168-5.977,13.145,13.145,0,0,0,4.162-1.591A6.579,6.579,0,0,1,41.1,19.9a13.071,13.071,0,0,0,3.764-1.032,13.319,13.319,0,0,1-3.269,3.394Zm0,0" fill="url(#linear-gradient)"/>
</svg>
